<svg width="32" height="32" viewBox="0 0 32 32" fill="none" xmlns="http://www.w3.org/2000/svg">
<path d="M16 0.000976562C24.8365 0.00103867 32 7.1645 32 16.001C32 19.3005 30.9996 22.3696 29.2861 24.918C29.0461 25.275 28.7898 25.6202 28.5225 25.9561L28.5273 25.9707L28.1484 26.4131C28.1426 26.4199 28.1357 26.4258 28.1299 26.4326C28.1044 26.4622 28.0784 26.4911 28.0527 26.5205C27.9785 26.6054 27.9041 26.6901 27.8281 26.7734C27.7941 26.8107 27.7599 26.8478 27.7256 26.8848C27.6615 26.9538 27.5965 27.022 27.5312 27.0898C27.4846 27.1383 27.4378 27.1865 27.3906 27.2344C27.314 27.3121 27.2364 27.3887 27.1582 27.4648C27.1399 27.4827 27.1219 27.5008 27.1035 27.5186C27.0138 27.605 26.9227 27.69 26.8311 27.7744C26.8011 27.802 26.7714 27.83 26.7412 27.8574C26.4228 28.146 26.0929 28.422 25.752 28.6846C25.6914 28.7312 25.6306 28.7775 25.5693 28.8232C25.4777 28.8917 25.3851 28.9588 25.292 29.0254C25.2781 29.0353 25.2639 29.0448 25.25 29.0547C25.1405 29.1324 25.0304 29.2092 24.9189 29.2842C24.8755 29.3134 24.8318 29.3423 24.7881 29.3711C24.7189 29.4167 24.6491 29.4613 24.5791 29.5059C24.5168 29.5455 24.4545 29.5852 24.3916 29.624C24.3089 29.6751 24.2253 29.7248 24.1416 29.7744C24.1014 29.7982 24.0619 29.8232 24.0215 29.8467C23.9276 29.9012 23.8324 29.9532 23.7373 30.0059C23.6933 30.0302 23.6497 30.0552 23.6055 30.0791C23.2033 30.2968 22.7911 30.4983 22.3691 30.6816C22.3047 30.7096 22.2397 30.7365 22.1748 30.7637C22.1037 30.7934 22.0325 30.8228 21.9609 30.8516C21.8851 30.882 21.8088 30.9111 21.7324 30.9404C21.6616 30.9676 21.5909 30.9953 21.5195 31.0215C21.4579 31.0441 21.396 31.066 21.334 31.0879C21.2303 31.1245 21.1261 31.1598 21.0215 31.1943C20.9846 31.2065 20.9481 31.2195 20.9111 31.2314C20.8004 31.2671 20.6889 31.3007 20.5771 31.334C20.5335 31.347 20.4901 31.3604 20.4463 31.373C20.3132 31.4115 20.1794 31.4483 20.0449 31.4834C20.0299 31.4873 20.015 31.4913 20 31.4951C19.8565 31.5321 19.7124 31.5676 19.5674 31.6006C19.5142 31.6127 19.4606 31.6232 19.4072 31.6348C19.2924 31.6597 19.1773 31.6846 19.0615 31.707C19.019 31.7153 18.9763 31.7226 18.9336 31.7305C18.8207 31.7514 18.7075 31.7715 18.5938 31.79C18.5369 31.7993 18.4799 31.8077 18.4229 31.8164C18.329 31.8307 18.235 31.8448 18.1406 31.8574C18.0701 31.8669 17.9995 31.8753 17.9287 31.8838C17.8336 31.8952 17.7382 31.9063 17.6426 31.916C17.5782 31.9226 17.5138 31.9288 17.4492 31.9346C17.369 31.9418 17.2886 31.9481 17.208 31.9541C17.1196 31.9607 17.0311 31.9675 16.9424 31.9727C16.8855 31.976 16.8285 31.9778 16.7715 31.9805C16.6656 31.9855 16.5595 31.9902 16.4531 31.9932C16.3729 31.9954 16.2925 31.996 16.2119 31.9971C16.1414 31.998 16.0698 32.001 15.999 32.001C15.8465 32.001 15.6945 31.9974 15.543 31.9932C15.4418 31.9903 15.3409 31.9862 15.2402 31.9814C15.177 31.9785 15.1138 31.9754 15.0508 31.9717C14.9666 31.9668 14.8827 31.9603 14.7988 31.9541C14.7137 31.9478 14.6287 31.9412 14.5439 31.9336C14.4836 31.9281 14.4234 31.9221 14.3633 31.916C14.2627 31.9058 14.1625 31.8949 14.0625 31.8828C13.9966 31.8749 13.9308 31.8672 13.8652 31.8584C13.7607 31.8445 13.6566 31.8294 13.5527 31.8135C13.5074 31.8065 13.4622 31.7993 13.417 31.792C13.2872 31.7709 13.158 31.7478 13.0293 31.7236C13.0014 31.7184 12.9732 31.7144 12.9453 31.709C12.8086 31.6826 12.6726 31.6539 12.5371 31.624C12.5137 31.6189 12.4901 31.6146 12.4668 31.6094C12.1545 31.539 11.8461 31.4585 11.541 31.3701C11.5106 31.3613 11.4805 31.3517 11.4502 31.3428C11.3216 31.3047 11.1936 31.2658 11.0664 31.2246C11.0488 31.2189 11.0313 31.2128 11.0137 31.207C10.8867 31.1654 10.7603 31.1228 10.6348 31.0781C10.592 31.0629 10.5495 31.0468 10.5068 31.0312C10.4163 30.9982 10.3261 30.9644 10.2363 30.9297C10.1756 30.9062 10.115 30.8826 10.0547 30.8584C9.94699 30.8153 9.83992 30.771 9.7334 30.7256C9.70736 30.7145 9.68124 30.7036 9.65527 30.6924C9.218 30.5033 8.79101 30.2952 8.375 30.0693C8.35349 30.0577 8.332 30.046 8.31055 30.0342C8.19174 29.969 8.07398 29.9021 7.95703 29.834C7.93093 29.8188 7.90491 29.8034 7.87891 29.7881C7.77922 29.7293 7.68031 29.6693 7.58203 29.6084C7.53765 29.5809 7.49331 29.5533 7.44922 29.5254C7.35115 29.4633 7.25384 29.4001 7.15723 29.3359C7.13647 29.3221 7.11541 29.3088 7.09473 29.2949C6.17625 28.6786 5.32569 27.9696 4.55566 27.1816C4.54199 27.1676 4.52827 27.1537 4.51465 27.1396C4.28607 26.904 4.06342 26.6624 3.84961 26.4131L3.4707 25.9707L3.47461 25.9541C3.208 25.619 2.95332 25.2741 2.71387 24.918C1.00032 22.3696 3.62274e-05 19.3005 0 16.001C0 7.16446 7.16349 0.000976562 16 0.000976562ZM16 2.13574C8.34252 2.13574 2.13477 8.3435 2.13477 16.001C2.1348 18.8234 2.9781 21.4458 4.4248 23.6348C5.77386 21.4037 8.22249 19.9113 11.0215 19.9111H20.9766C23.7759 19.9111 26.2242 21.4043 27.5732 23.6357C29.0206 21.4465 29.8652 18.8241 29.8652 16.001C29.8652 8.34353 23.6574 2.1358 16 2.13574ZM16.1719 4.84473C19.8888 4.84483 22.9022 7.85823 22.9023 11.5752C22.9022 15.2922 19.8888 18.3056 16.1719 18.3057C12.455 18.3055 9.44152 15.2921 9.44141 11.5752C9.44151 7.85828 12.455 4.8449 16.1719 4.84473Z" fill="#8BC7FF"/>
</svg>
