<svg width="393" height="698" viewBox="0 0 393 698" fill="none" xmlns="http://www.w3.org/2000/svg">
<rect width="393" height="698" fill="#F5F7F9"/>
<path d="M33 160H373V432V478.219H259.312V432H114.281V461.219H61.6875V432H33V160Z" fill="white"/>
<rect x="33.5312" y="160.531" width="113.688" height="63.75" fill="#EDF6FF"/>
<rect x="33.5312" y="160.531" width="113.688" height="63.75" stroke="#8BC7FF" stroke-width="1.0625"/>
<text transform="translate(64.875 187.406)" fill="#6D7073" style="white-space: pre" xml:space="preserve" font-family="Pretendard" font-size="8" letter-spacing="0em"><tspan x="0.296875" y="7.84375">&#xba85;&#xc9c0; &#xc0c8;&#xb9c8;&#xc744;&#xae08;&#xace0;</tspan></text>
<rect x="147.222" y="160.531" width="224.938" height="110.497" fill="#EDF6FF"/>
<rect x="147.222" y="160.531" width="224.938" height="110.497" stroke="#8BC7FF" stroke-width="1.0625"/>
<text transform="translate(249.19 205.78)" fill="#6D7073" style="white-space: pre" xml:space="preserve" font-family="Pretendard" font-size="8" letter-spacing="0em"><tspan x="0.460938" y="7.84375">S2111&#10;</tspan><tspan x="0.128906" y="17.8438">&#xc18c;&#xac15;&#xb2f9;</tspan></text>
<rect x="210.031" y="271.031" width="36.9375" height="23.9375" fill="#EDF6FF"/>
<rect x="210.031" y="271.031" width="36.9375" height="23.9375" stroke="#8BC7FF" stroke-width="1.0625"/>
<text transform="translate(214.5 273)" fill="#6D7073" style="white-space: pre" xml:space="preserve" font-family="Pretendard" font-size="8" letter-spacing="0em"><tspan x="0.171875" y="7.84375">&#xd558;&#xb098;&#xc740;&#xd589;&#10;</tspan><tspan x="5.89453" y="17.8438">ATM</tspan></text>
<rect x="147.219" y="271.031" width="55.25" height="23.375" fill="#EDF6FF"/>
<rect x="147.219" y="271.031" width="55.25" height="23.375" stroke="#8BC7FF" stroke-width="1.0625"/>
<text transform="translate(163.844 277.719)" fill="#6D7073" style="white-space: pre" xml:space="preserve" font-family="Pretendard" font-size="8" letter-spacing="0em"><tspan x="0.261719" y="7.84375">S2116</tspan></text>
<rect x="33.5312" y="224.281" width="78.625" height="23.375" fill="#EDF6FF"/>
<rect x="33.5312" y="224.281" width="78.625" height="23.375" stroke="#8BC7FF" stroke-width="1.0625"/>
<rect x="65.3438" y="228.469" width="15" height="15" rx="1.5" fill="#FF8282"/>
<path d="M72.885 233.059C73.4897 233.059 73.98 232.569 73.98 231.964C73.98 231.359 73.4897 230.869 72.885 230.869C72.2803 230.869 71.79 231.359 71.79 231.964C71.79 232.569 72.2803 233.059 72.885 233.059Z" stroke="white" stroke-width="0.8025" stroke-linecap="round" stroke-linejoin="round"/>
<path d="M71.5162 234.702H74.2536L74.8011 237.713H73.9799L73.7062 240.724H72.0637L71.79 237.713H70.9688L71.5162 234.702Z" stroke="white" stroke-width="0.8025" stroke-linecap="round" stroke-linejoin="round"/>
<rect x="33.5312" y="247.656" width="78.625" height="23.375" fill="#EDF6FF"/>
<rect x="33.5312" y="247.656" width="78.625" height="23.375" stroke="#8BC7FF" stroke-width="1.0625"/>
<rect x="65.3438" y="251.844" width="15" height="15" rx="1.5" fill="#3F71AE"/>
<path d="M71.9143 256.541C71.7278 256.355 71.623 256.102 71.623 255.838C71.623 255.574 71.7278 255.321 71.9143 255.135C72.1007 254.948 72.3536 254.844 72.6173 254.844C72.881 254.844 73.1339 254.948 73.3203 255.135C73.5068 255.321 73.6115 255.574 73.6115 255.838C73.6115 256.102 73.5068 256.355 73.3203 256.541C73.1339 256.727 72.881 256.832 72.6173 256.832C72.3536 256.832 72.1007 256.727 71.9143 256.541Z" stroke="white" stroke-width="0.8025" stroke-linecap="round" stroke-linejoin="round"/>
<path d="M72.6168 256.832V260.809H74.6053L76.5938 263.295M72.6168 258.821H75.1024M70.6283 259.069C70.2721 259.217 69.9551 259.445 69.7024 259.736C69.4497 260.027 69.2681 260.373 69.1721 260.746C69.0761 261.12 69.0682 261.51 69.1491 261.887C69.2301 262.264 69.3976 262.617 69.6384 262.918C69.8793 263.219 70.1868 263.46 70.5368 263.622C70.8868 263.784 71.2696 263.862 71.6549 263.85C72.0402 263.838 72.4176 263.737 72.7571 263.554C73.0966 263.372 73.3889 263.113 73.611 262.797" stroke="white" stroke-width="0.8025" stroke-linecap="round" stroke-linejoin="round"/>
<rect x="33.5312" y="271.031" width="78.625" height="23.375" fill="#EDF6FF"/>
<rect x="33.5312" y="271.031" width="78.625" height="23.375" stroke="#8BC7FF" stroke-width="1.0625"/>
<rect x="65.3438" y="275.219" width="15" height="15" rx="1.5" fill="#5DABFF"/>
<path d="M72.9006 279.809C73.5054 279.809 73.9956 279.319 73.9956 278.714C73.9956 278.109 73.5054 277.619 72.9006 277.619C72.2959 277.619 71.8057 278.109 71.8057 278.714C71.8057 279.319 72.2959 279.809 72.9006 279.809Z" stroke="white" stroke-width="0.8025" stroke-linecap="round" stroke-linejoin="round"/>
<path d="M71.5312 281.452H74.2687L73.7212 287.474H72.0787L71.5312 281.452Z" stroke="white" stroke-width="0.8025" stroke-linecap="round" stroke-linejoin="round"/>
<rect x="147.219" y="297.594" width="27.625" height="21.25" fill="#EDF6FF"/>
<rect x="147.219" y="297.594" width="27.625" height="21.25" stroke="#8BC7FF" stroke-width="1.0625"/>
<rect x="153.531" y="300.719" width="15" height="15" rx="1.5" fill="#909499"/>
<path d="M160.969 306.057H163.594C163.904 306.057 164.201 306.18 164.419 306.399C164.638 306.617 164.761 306.914 164.761 307.224V312.302C164.761 312.612 164.638 312.908 164.419 313.127C164.201 313.346 163.904 313.469 163.594 313.469H160.969M160.969 306.057H158.344C158.035 306.057 157.738 306.18 157.519 306.399C157.301 306.617 157.178 306.914 157.178 307.224V312.302C157.178 312.612 157.301 312.908 157.519 313.127C157.738 313.346 158.035 313.469 158.344 313.469H160.969M160.969 306.057V313.469M158.126 303.895L159.074 302.969L160.021 303.895M161.917 302.969L162.865 303.895L163.813 302.969" stroke="white" stroke-width="0.8025" stroke-linecap="round" stroke-linejoin="round"/>
<rect x="174.844" y="294.406" width="27.625" height="40.375" fill="#EDF6FF"/>
<rect x="174.844" y="294.406" width="27.625" height="40.375" stroke="#8BC7FF" stroke-width="1.0625"/>
<text transform="translate(178.156 309.594)" fill="#6D7073" style="white-space: pre" xml:space="preserve" font-family="Pretendard" font-size="8" letter-spacing="0em"><tspan x="0.128906" y="7.84375">&#xacbd;&#xbe44;&#xc2e4;</tspan></text>
<rect x="33.5312" y="363.469" width="112.625" height="68" fill="#EDF6FF"/>
<rect x="33.5312" y="363.469" width="112.625" height="68" stroke="#8BC7FF" stroke-width="1.0625"/>
<text transform="translate(79.3438 392.469)" fill="#6D7073" style="white-space: pre" xml:space="preserve" font-family="Pretendard" font-size="8" letter-spacing="0em"><tspan x="0.128906" y="7.84375">&#xc6b0;&#xccb4;&#xad6d;</tspan></text>
<rect x="259.844" y="455.906" width="112.625" height="3.1875" stroke="#8BC7FF" stroke-width="1.0625"/>
<rect x="259.844" y="459.094" width="112.625" height="3.1875" stroke="#8BC7FF" stroke-width="1.0625"/>
<rect x="259.844" y="462.281" width="112.625" height="3.1875" stroke="#8BC7FF" stroke-width="1.0625"/>
<rect x="259.844" y="465.469" width="112.625" height="3.1875" stroke="#8BC7FF" stroke-width="1.0625"/>
<rect x="259.844" y="468.656" width="112.625" height="3.1875" stroke="#8BC7FF" stroke-width="1.0625"/>
<rect x="259.844" y="471.844" width="112.625" height="3.1875" stroke="#8BC7FF" stroke-width="1.0625"/>
<rect x="62.2187" y="461.219" width="14.3438" height="3.1875" transform="rotate(-90 62.2187 461.219)" stroke="#8BC7FF" stroke-width="1.0625"/>
<rect x="65.4062" y="461.219" width="14.3438" height="3.1875" transform="rotate(-90 65.4062 461.219)" stroke="#8BC7FF" stroke-width="1.0625"/>
<rect x="68.5937" y="461.219" width="14.3438" height="3.1875" transform="rotate(-90 68.5937 461.219)" stroke="#8BC7FF" stroke-width="1.0625"/>
<rect x="71.7812" y="461.219" width="14.3438" height="3.1875" transform="rotate(-90 71.7812 461.219)" stroke="#8BC7FF" stroke-width="1.0625"/>
<rect x="74.9687" y="461.219" width="14.3438" height="3.1875" transform="rotate(-90 74.9687 461.219)" stroke="#8BC7FF" stroke-width="1.0625"/>
<rect x="78.1562" y="461.219" width="14.3438" height="3.1875" transform="rotate(-90 78.1562 461.219)" stroke="#8BC7FF" stroke-width="1.0625"/>
<rect x="81.3437" y="461.219" width="14.3438" height="3.1875" transform="rotate(-90 81.3437 461.219)" stroke="#8BC7FF" stroke-width="1.0625"/>
<rect x="84.5312" y="461.219" width="14.3438" height="3.1875" transform="rotate(-90 84.5312 461.219)" stroke="#8BC7FF" stroke-width="1.0625"/>
<rect x="87.7187" y="461.219" width="14.3438" height="3.1875" transform="rotate(-90 87.7187 461.219)" stroke="#8BC7FF" stroke-width="1.0625"/>
<rect x="90.9062" y="461.219" width="14.3438" height="3.1875" transform="rotate(-90 90.9062 461.219)" stroke="#8BC7FF" stroke-width="1.0625"/>
<rect x="94.0937" y="461.219" width="14.3438" height="3.1875" transform="rotate(-90 94.0937 461.219)" stroke="#8BC7FF" stroke-width="1.0625"/>
<rect x="97.2812" y="461.219" width="14.3438" height="3.1875" transform="rotate(-90 97.2812 461.219)" stroke="#8BC7FF" stroke-width="1.0625"/>
<rect x="100.469" y="461.219" width="14.3438" height="3.1875" transform="rotate(-90 100.469 461.219)" stroke="#8BC7FF" stroke-width="1.0625"/>
<rect x="62.2187" y="446.875" width="14.3438" height="3.1875" transform="rotate(-90 62.2187 446.875)" stroke="#8BC7FF" stroke-width="1.0625"/>
<rect x="65.4062" y="446.875" width="14.3438" height="3.1875" transform="rotate(-90 65.4062 446.875)" stroke="#8BC7FF" stroke-width="1.0625"/>
<rect x="68.5937" y="446.875" width="14.3438" height="3.1875" transform="rotate(-90 68.5937 446.875)" stroke="#8BC7FF" stroke-width="1.0625"/>
<rect x="71.7812" y="446.875" width="14.3438" height="3.1875" transform="rotate(-90 71.7812 446.875)" stroke="#8BC7FF" stroke-width="1.0625"/>
<rect x="74.9687" y="446.875" width="14.3438" height="3.1875" transform="rotate(-90 74.9687 446.875)" stroke="#8BC7FF" stroke-width="1.0625"/>
<rect x="78.1562" y="446.875" width="14.3438" height="3.1875" transform="rotate(-90 78.1562 446.875)" stroke="#8BC7FF" stroke-width="1.0625"/>
<rect x="81.3437" y="446.875" width="14.3438" height="3.1875" transform="rotate(-90 81.3437 446.875)" stroke="#8BC7FF" stroke-width="1.0625"/>
<rect x="84.5312" y="446.875" width="14.3438" height="3.1875" transform="rotate(-90 84.5312 446.875)" stroke="#8BC7FF" stroke-width="1.0625"/>
<rect x="87.7187" y="446.875" width="14.3438" height="3.1875" transform="rotate(-90 87.7187 446.875)" stroke="#8BC7FF" stroke-width="1.0625"/>
<rect x="90.9062" y="446.875" width="14.3438" height="3.1875" transform="rotate(-90 90.9062 446.875)" stroke="#8BC7FF" stroke-width="1.0625"/>
<rect x="94.0937" y="446.875" width="14.3438" height="3.1875" transform="rotate(-90 94.0937 446.875)" stroke="#8BC7FF" stroke-width="1.0625"/>
<rect x="97.2812" y="446.875" width="14.3438" height="3.1875" transform="rotate(-90 97.2812 446.875)" stroke="#8BC7FF" stroke-width="1.0625"/>
<rect x="100.469" y="446.875" width="14.3438" height="3.1875" transform="rotate(-90 100.469 446.875)" stroke="#8BC7FF" stroke-width="1.0625"/>
<rect x="351.219" y="296.531" width="8.5" height="3.1875" stroke="#8BC7FF" stroke-width="1.0625"/>
<rect x="351.219" y="299.719" width="8.5" height="3.1875" stroke="#8BC7FF" stroke-width="1.0625"/>
<rect x="351.219" y="302.906" width="8.5" height="3.1875" stroke="#8BC7FF" stroke-width="1.0625"/>
<rect x="351.219" y="306.094" width="8.5" height="3.1875" stroke="#8BC7FF" stroke-width="1.0625"/>
<rect x="351.219" y="309.281" width="8.5" height="3.1875" stroke="#8BC7FF" stroke-width="1.0625"/>
<rect x="351.219" y="312.469" width="8.5" height="3.1875" stroke="#8BC7FF" stroke-width="1.0625"/>
<rect x="351.219" y="315.656" width="8.5" height="3.1875" stroke="#8BC7FF" stroke-width="1.0625"/>
<rect x="351.219" y="318.844" width="8.5" height="3.1875" stroke="#8BC7FF" stroke-width="1.0625"/>
<rect x="351.219" y="322.031" width="8.5" height="3.1875" stroke="#8BC7FF" stroke-width="1.0625"/>
<rect x="351.219" y="325.219" width="8.5" height="3.1875" stroke="#8BC7FF" stroke-width="1.0625"/>
<rect x="351.219" y="328.406" width="8.5" height="3.1875" stroke="#8BC7FF" stroke-width="1.0625"/>
<rect x="351.219" y="331.594" width="8.5" height="3.1875" stroke="#8BC7FF" stroke-width="1.0625"/>
<rect x="351.219" y="334.781" width="8.5" height="3.1875" stroke="#8BC7FF" stroke-width="1.0625"/>
<rect x="351.219" y="337.969" width="8.5" height="3.1875" stroke="#8BC7FF" stroke-width="1.0625"/>
<rect x="351.219" y="341.156" width="8.5" height="3.1875" stroke="#8BC7FF" stroke-width="1.0625"/>
<rect x="351.219" y="344.344" width="8.5" height="3.1875" stroke="#8BC7FF" stroke-width="1.0625"/>
<rect x="351.219" y="347.531" width="8.5" height="3.1875" stroke="#8BC7FF" stroke-width="1.0625"/>
<rect x="351.219" y="350.719" width="8.5" height="3.1875" stroke="#8BC7FF" stroke-width="1.0625"/>
<rect x="351.219" y="353.906" width="8.5" height="3.1875" stroke="#8BC7FF" stroke-width="1.0625"/>
<rect x="351.219" y="357.094" width="8.5" height="3.1875" stroke="#8BC7FF" stroke-width="1.0625"/>
<rect x="359.719" y="296.531" width="8.5" height="3.1875" stroke="#8BC7FF" stroke-width="1.0625"/>
<rect x="359.719" y="299.719" width="8.5" height="3.1875" stroke="#8BC7FF" stroke-width="1.0625"/>
<rect x="359.719" y="302.906" width="8.5" height="3.1875" stroke="#8BC7FF" stroke-width="1.0625"/>
<rect x="359.719" y="306.094" width="8.5" height="3.1875" stroke="#8BC7FF" stroke-width="1.0625"/>
<rect x="359.719" y="309.281" width="8.5" height="3.1875" stroke="#8BC7FF" stroke-width="1.0625"/>
<rect x="359.719" y="312.469" width="8.5" height="3.1875" stroke="#8BC7FF" stroke-width="1.0625"/>
<rect x="359.719" y="315.656" width="8.5" height="3.1875" stroke="#8BC7FF" stroke-width="1.0625"/>
<rect x="359.719" y="318.844" width="8.5" height="3.1875" stroke="#8BC7FF" stroke-width="1.0625"/>
<rect x="359.719" y="322.031" width="8.5" height="3.1875" stroke="#8BC7FF" stroke-width="1.0625"/>
<rect x="359.719" y="325.219" width="8.5" height="3.1875" stroke="#8BC7FF" stroke-width="1.0625"/>
<rect x="359.719" y="328.406" width="8.5" height="3.1875" stroke="#8BC7FF" stroke-width="1.0625"/>
<rect x="359.719" y="331.594" width="8.5" height="3.1875" stroke="#8BC7FF" stroke-width="1.0625"/>
<rect x="359.719" y="334.781" width="8.5" height="3.1875" stroke="#8BC7FF" stroke-width="1.0625"/>
<rect x="359.719" y="337.969" width="8.5" height="3.1875" stroke="#8BC7FF" stroke-width="1.0625"/>
<rect x="359.719" y="341.156" width="8.5" height="3.1875" stroke="#8BC7FF" stroke-width="1.0625"/>
<rect x="359.719" y="344.344" width="8.5" height="3.1875" stroke="#8BC7FF" stroke-width="1.0625"/>
<rect x="359.719" y="347.531" width="8.5" height="3.1875" stroke="#8BC7FF" stroke-width="1.0625"/>
<rect x="359.719" y="350.719" width="8.5" height="3.1875" stroke="#8BC7FF" stroke-width="1.0625"/>
<rect x="359.719" y="353.906" width="8.5" height="3.1875" stroke="#8BC7FF" stroke-width="1.0625"/>
<rect x="359.719" y="357.094" width="8.5" height="3.1875" stroke="#8BC7FF" stroke-width="1.0625"/>
<path d="M373 478.219V432M259.312 432V478.219M259.312 432H274.719M259.312 432H61.6875M373 432V160H33V432H61.6875M373 432H299.156M61.6875 432V461.219H114.281" stroke="#5DABFF" stroke-width="2.65625"/>
<path d="M316 484L318.598 488.5H313.402L316 484Z" fill="#3B96FF"/>
<text fill="#3B96FF" style="white-space: pre" xml:space="preserve" font-family="Pretendard" font-size="7" letter-spacing="0em"><tspan x="306.925" y="498.988">&#xcd9c;&#xc785;&#xbb38;</tspan></text>
<path d="M121 447L125.5 444.402L125.5 449.598L121 447Z" fill="#3B96FF"/>
<text fill="#3B96FF" style="white-space: pre" xml:space="preserve" font-family="Pretendard" font-size="7" letter-spacing="0em"><tspan x="129.425" y="449.488">&#xcd9c;&#xc785;&#xbb38;</tspan></text>
<rect x="76" y="439" width="15" height="15" rx="1.5" fill="#909499"/>
<path d="M88.75 442.75H86.125V445.375H83.5V448H80.875V450.625H78.25" stroke="white" stroke-width="0.8025" stroke-linecap="round" stroke-linejoin="round"/>
<rect x="309" y="458" width="15" height="15" rx="1.5" fill="#909499"/>
<path d="M321.75 461.75H319.125V464.375H316.5V467H313.875V469.625H311.25" stroke="white" stroke-width="0.8025" stroke-linecap="round" stroke-linejoin="round"/>
<rect x="352.2" y="320" width="15" height="15" rx="1.5" fill="#909499"/>
<path d="M364.95 323.75H362.325V326.375H359.7V329H357.075V331.625H354.45" stroke="white" stroke-width="0.8025" stroke-linecap="round" stroke-linejoin="round"/>
<rect x="34.5312" y="363.469" width="20.1875" height="3.1875" transform="rotate(-90 34.5312 363.469)" stroke="#8BC7FF" stroke-width="1.0625"/>
<rect x="37.7187" y="363.469" width="20.1875" height="3.1875" transform="rotate(-90 37.7187 363.469)" stroke="#8BC7FF" stroke-width="1.0625"/>
<rect x="40.9062" y="363.469" width="20.1875" height="3.1875" transform="rotate(-90 40.9062 363.469)" stroke="#8BC7FF" stroke-width="1.0625"/>
<rect x="44.0937" y="363.469" width="20.1875" height="3.1875" transform="rotate(-90 44.0937 363.469)" stroke="#8BC7FF" stroke-width="1.0625"/>
<rect x="47.2812" y="363.469" width="20.1875" height="3.1875" transform="rotate(-90 47.2812 363.469)" stroke="#8BC7FF" stroke-width="1.0625"/>
<rect x="50.4687" y="363.469" width="20.1875" height="3.1875" transform="rotate(-90 50.4687 363.469)" stroke="#8BC7FF" stroke-width="1.0625"/>
<rect x="53.6562" y="363.469" width="20.1875" height="3.1875" transform="rotate(-90 53.6562 363.469)" stroke="#8BC7FF" stroke-width="1.0625"/>
<rect x="56.8437" y="363.469" width="20.1875" height="3.1875" transform="rotate(-90 56.8437 363.469)" stroke="#8BC7FF" stroke-width="1.0625"/>
<rect x="60.0312" y="363.469" width="20.1875" height="3.1875" transform="rotate(-90 60.0312 363.469)" stroke="#8BC7FF" stroke-width="1.0625"/>
<rect x="63.2187" y="363.469" width="20.1875" height="3.1875" transform="rotate(-90 63.2187 363.469)" stroke="#8BC7FF" stroke-width="1.0625"/>
<rect x="66.4062" y="363.469" width="20.1875" height="3.1875" transform="rotate(-90 66.4062 363.469)" stroke="#8BC7FF" stroke-width="1.0625"/>
<rect x="69.5937" y="363.469" width="20.1875" height="3.1875" transform="rotate(-90 69.5937 363.469)" stroke="#8BC7FF" stroke-width="1.0625"/>
<rect x="72.7812" y="363.469" width="20.1875" height="3.1875" transform="rotate(-90 72.7812 363.469)" stroke="#8BC7FF" stroke-width="1.0625"/>
<rect x="75.9687" y="363.469" width="20.1875" height="3.1875" transform="rotate(-90 75.9687 363.469)" stroke="#8BC7FF" stroke-width="1.0625"/>
<rect x="79.1562" y="363.469" width="20.1875" height="3.1875" transform="rotate(-90 79.1562 363.469)" stroke="#8BC7FF" stroke-width="1.0625"/>
<rect x="82.3437" y="363.469" width="20.1875" height="3.1875" transform="rotate(-90 82.3437 363.469)" stroke="#8BC7FF" stroke-width="1.0625"/>
<rect x="34.5312" y="343.281" width="20.1875" height="3.1875" transform="rotate(-90 34.5312 343.281)" stroke="#8BC7FF" stroke-width="1.0625"/>
<rect x="37.7187" y="343.281" width="20.1875" height="3.1875" transform="rotate(-90 37.7187 343.281)" stroke="#8BC7FF" stroke-width="1.0625"/>
<rect x="40.9062" y="343.281" width="20.1875" height="3.1875" transform="rotate(-90 40.9062 343.281)" stroke="#8BC7FF" stroke-width="1.0625"/>
<rect x="44.0937" y="343.281" width="20.1875" height="3.1875" transform="rotate(-90 44.0937 343.281)" stroke="#8BC7FF" stroke-width="1.0625"/>
<rect x="47.2812" y="343.281" width="20.1875" height="3.1875" transform="rotate(-90 47.2812 343.281)" stroke="#8BC7FF" stroke-width="1.0625"/>
<rect x="50.4687" y="343.281" width="20.1875" height="3.1875" transform="rotate(-90 50.4687 343.281)" stroke="#8BC7FF" stroke-width="1.0625"/>
<rect x="53.6562" y="343.281" width="20.1875" height="3.1875" transform="rotate(-90 53.6562 343.281)" stroke="#8BC7FF" stroke-width="1.0625"/>
<rect x="56.8437" y="343.281" width="20.1875" height="3.1875" transform="rotate(-90 56.8437 343.281)" stroke="#8BC7FF" stroke-width="1.0625"/>
<rect x="60.0312" y="343.281" width="20.1875" height="3.1875" transform="rotate(-90 60.0312 343.281)" stroke="#8BC7FF" stroke-width="1.0625"/>
<rect x="63.2187" y="343.281" width="20.1875" height="3.1875" transform="rotate(-90 63.2187 343.281)" stroke="#8BC7FF" stroke-width="1.0625"/>
<rect x="66.4062" y="343.281" width="20.1875" height="3.1875" transform="rotate(-90 66.4062 343.281)" stroke="#8BC7FF" stroke-width="1.0625"/>
<rect x="69.5937" y="343.281" width="20.1875" height="3.1875" transform="rotate(-90 69.5937 343.281)" stroke="#8BC7FF" stroke-width="1.0625"/>
<rect x="72.7812" y="343.281" width="20.1875" height="3.1875" transform="rotate(-90 72.7812 343.281)" stroke="#8BC7FF" stroke-width="1.0625"/>
<rect x="75.9687" y="343.281" width="20.1875" height="3.1875" transform="rotate(-90 75.9687 343.281)" stroke="#8BC7FF" stroke-width="1.0625"/>
<rect x="79.1562" y="343.281" width="20.1875" height="3.1875" transform="rotate(-90 79.1562 343.281)" stroke="#8BC7FF" stroke-width="1.0625"/>
<rect x="82.3437" y="343.281" width="20.1875" height="3.1875" transform="rotate(-90 82.3437 343.281)" stroke="#8BC7FF" stroke-width="1.0625"/>
<rect x="53" y="336" width="15" height="15" rx="1.5" fill="#909499"/>
<path d="M65.75 339.75H63.125V342.375H60.5V345H57.875V347.625H55.25" stroke="white" stroke-width="0.8025" stroke-linecap="round" stroke-linejoin="round"/>
<rect x="33.5312" y="294.531" width="51.9375" height="28.9375" fill="#EDF6FF"/>
<rect x="33.5312" y="294.531" width="51.9375" height="28.9375" stroke="#8BC7FF" stroke-width="1.0625"/>
<rect x="52" y="301.5" width="15" height="15" rx="1.5" fill="#909499"/>
<path d="M59.4382 306.838H62.0632C62.3726 306.838 62.6693 306.961 62.8881 307.18C63.1069 307.399 63.2298 307.695 63.2298 308.005V313.083C63.2298 313.393 63.1069 313.689 62.8881 313.908C62.6693 314.127 62.3726 314.25 62.0632 314.25H59.4382M59.4382 306.838H56.8132C56.5037 306.838 56.207 306.961 55.9882 307.18C55.7694 307.399 55.6465 307.695 55.6465 308.005V313.083C55.6465 313.393 55.7694 313.689 55.9882 313.908C56.207 314.127 56.5037 314.25 56.8132 314.25H59.4382M59.4382 306.838V314.25M56.5944 304.676L57.5423 303.75L58.4902 304.676M60.3861 303.75L61.334 304.676L62.2819 303.75" stroke="white" stroke-width="0.8025" stroke-linecap="round" stroke-linejoin="round"/>
</svg>
