<svg width="393" height="698" viewBox="0 0 393 698" fill="none" xmlns="http://www.w3.org/2000/svg">
<rect width="393" height="698" fill="#F5F7F9"/>
<path d="M373 160H33V432H373V160Z" fill="white"/>
<rect x="202.469" y="256.156" width="57.375" height="79.6875" fill="#EDF6FF"/>
<rect x="202.469" y="256.156" width="57.375" height="79.6875" stroke="#8BC7FF" stroke-width="1.0625"/>
<text transform="translate(219.656 286)" fill="#6D7073" style="white-space: pre" xml:space="preserve" font-family="Pretendard" font-size="8" letter-spacing="0em"><tspan x="0.128906" y="7.84375">S2615&#10;</tspan><tspan x="1.12891" y="17.8438">&#xbe44;&#xc8fc;&#xc5bc;</tspan></text>
<rect x="259.844" y="160.531" width="112.625" height="63.75" fill="#EDF6FF"/>
<rect x="259.844" y="160.531" width="112.625" height="63.75" stroke="#8BC7FF" stroke-width="1.0625"/>
<text transform="translate(291.656 182.406)" fill="#6D7073" style="white-space: pre" xml:space="preserve" font-family="Pretendard" font-size="8" letter-spacing="0em"><tspan x="13.7617" y="7.84375">S2611&#10;</tspan><tspan x="0.300781" y="17.8438">&#xba85;&#xc9c0;&#xc11c;&#xbc95;&#xc5f0;&#xad6c;&#xd68c;</tspan></text>
<rect x="147.219" y="160.531" width="56.3125" height="63.75" fill="#EDF6FF"/>
<rect x="147.219" y="160.531" width="56.3125" height="63.75" stroke="#8BC7FF" stroke-width="1.0625"/>
<text transform="translate(161.375 182.406)" fill="#6D7073" style="white-space: pre" xml:space="preserve" font-family="Pretendard" font-size="8" letter-spacing="0em"><tspan x="1.93359" y="7.84375">S2609&#10;</tspan><tspan x="0.171875" y="17.8438">&#xb108;&#xb098;&#xb4e4;&#xc774;</tspan></text>
<rect x="203.531" y="160.531" width="56.3125" height="63.75" fill="#EDF6FF"/>
<rect x="203.531" y="160.531" width="56.3125" height="63.75" stroke="#8BC7FF" stroke-width="1.0625"/>
<text transform="translate(206.188 182.406)" fill="#6D7073" style="white-space: pre" xml:space="preserve" font-family="Pretendard" font-size="8" letter-spacing="0em"><tspan x="14.1328" y="7.84375">S2610&#10;</tspan><tspan x="0.296875" y="17.8438">&#xadf9;&#xc608;&#xc220;&#xc5f0;&#xad6c;&#xd68c; &#xc54c;</tspan></text>
<rect x="147.219" y="363.469" width="55.25" height="68" fill="#EDF6FF"/>
<rect x="147.219" y="363.469" width="55.25" height="68" stroke="#8BC7FF" stroke-width="1.0625"/>
<text transform="translate(153.844 387.469)" fill="#6D7073" style="white-space: pre" xml:space="preserve" font-family="Pretendard" font-size="8" letter-spacing="0em"><tspan x="8.89062" y="7.84375">S2604&#10;</tspan><tspan x="0.257812" y="17.8438">&#xadf8;&#xb9bc;&#xd328;&#xc2dc;&#xb9cc;&#xd654;</tspan></text>
<rect x="202.469" y="363.469" width="55.25" height="68" fill="#EDF6FF"/>
<rect x="202.469" y="363.469" width="55.25" height="68" stroke="#8BC7FF" stroke-width="1.0625"/>
<text transform="translate(217.594 387.469)" fill="#6D7073" style="white-space: pre" xml:space="preserve" font-family="Pretendard" font-size="8" letter-spacing="0em"><tspan x="0.417969" y="7.84375">S2603&#10;</tspan><tspan x="4.75781" y="17.8438">RCY</tspan></text>
<rect x="288.531" y="269.969" width="83.9375" height="55.25" fill="#EDF6FF"/>
<rect x="288.531" y="269.969" width="83.9375" height="55.25" stroke="#8BC7FF" stroke-width="1.0625"/>
<text transform="translate(319 287.594)" fill="#6D7073" style="white-space: pre" xml:space="preserve" font-family="Pretendard" font-size="8" letter-spacing="0em"><tspan x="0.046875" y="7.84375">S2613&#10;</tspan><tspan x="1.12891" y="17.8438">&#xd0a4;&#xbe44;&#xd0c4;</tspan></text>
<rect x="288.531" y="224.281" width="83.9375" height="45.6875" fill="#EDF6FF"/>
<rect x="288.531" y="224.281" width="83.9375" height="45.6875" stroke="#8BC7FF" stroke-width="1.0625"/>
<text transform="translate(309.5 237.125)" fill="#6D7073" style="white-space: pre" xml:space="preserve" font-family="Pretendard" font-size="8" letter-spacing="0em"><tspan x="9.66797" y="7.84375">S2612&#10;</tspan><tspan x="0.257812" y="17.8438">&#xba85;&#xc9c0;&#xcc4c;&#xb9b0;&#xc800;&#xc2a4;</tspan></text>
<rect x="34.5312" y="363.469" width="20.1875" height="3.1875" transform="rotate(-90 34.5312 363.469)" stroke="#8BC7FF" stroke-width="1.0625"/>
<rect x="37.7187" y="363.469" width="20.1875" height="3.1875" transform="rotate(-90 37.7187 363.469)" stroke="#8BC7FF" stroke-width="1.0625"/>
<rect x="40.9062" y="363.469" width="20.1875" height="3.1875" transform="rotate(-90 40.9062 363.469)" stroke="#8BC7FF" stroke-width="1.0625"/>
<rect x="44.0937" y="363.469" width="20.1875" height="3.1875" transform="rotate(-90 44.0937 363.469)" stroke="#8BC7FF" stroke-width="1.0625"/>
<rect x="47.2812" y="363.469" width="20.1875" height="3.1875" transform="rotate(-90 47.2812 363.469)" stroke="#8BC7FF" stroke-width="1.0625"/>
<rect x="50.4687" y="363.469" width="20.1875" height="3.1875" transform="rotate(-90 50.4687 363.469)" stroke="#8BC7FF" stroke-width="1.0625"/>
<rect x="53.6562" y="363.469" width="20.1875" height="3.1875" transform="rotate(-90 53.6562 363.469)" stroke="#8BC7FF" stroke-width="1.0625"/>
<rect x="56.8437" y="363.469" width="20.1875" height="3.1875" transform="rotate(-90 56.8437 363.469)" stroke="#8BC7FF" stroke-width="1.0625"/>
<rect x="60.0312" y="363.469" width="20.1875" height="3.1875" transform="rotate(-90 60.0312 363.469)" stroke="#8BC7FF" stroke-width="1.0625"/>
<rect x="63.2187" y="363.469" width="20.1875" height="3.1875" transform="rotate(-90 63.2187 363.469)" stroke="#8BC7FF" stroke-width="1.0625"/>
<rect x="66.4062" y="363.469" width="20.1875" height="3.1875" transform="rotate(-90 66.4062 363.469)" stroke="#8BC7FF" stroke-width="1.0625"/>
<rect x="69.5937" y="363.469" width="20.1875" height="3.1875" transform="rotate(-90 69.5937 363.469)" stroke="#8BC7FF" stroke-width="1.0625"/>
<rect x="72.7812" y="363.469" width="20.1875" height="3.1875" transform="rotate(-90 72.7812 363.469)" stroke="#8BC7FF" stroke-width="1.0625"/>
<rect x="75.9687" y="363.469" width="20.1875" height="3.1875" transform="rotate(-90 75.9687 363.469)" stroke="#8BC7FF" stroke-width="1.0625"/>
<rect x="79.1562" y="363.469" width="20.1875" height="3.1875" transform="rotate(-90 79.1562 363.469)" stroke="#8BC7FF" stroke-width="1.0625"/>
<rect x="82.3437" y="363.469" width="20.1875" height="3.1875" transform="rotate(-90 82.3437 363.469)" stroke="#8BC7FF" stroke-width="1.0625"/>
<rect x="34.5312" y="343.281" width="20.1875" height="3.1875" transform="rotate(-90 34.5312 343.281)" stroke="#8BC7FF" stroke-width="1.0625"/>
<rect x="37.7187" y="343.281" width="20.1875" height="3.1875" transform="rotate(-90 37.7187 343.281)" stroke="#8BC7FF" stroke-width="1.0625"/>
<rect x="40.9062" y="343.281" width="20.1875" height="3.1875" transform="rotate(-90 40.9062 343.281)" stroke="#8BC7FF" stroke-width="1.0625"/>
<rect x="44.0937" y="343.281" width="20.1875" height="3.1875" transform="rotate(-90 44.0937 343.281)" stroke="#8BC7FF" stroke-width="1.0625"/>
<rect x="47.2812" y="343.281" width="20.1875" height="3.1875" transform="rotate(-90 47.2812 343.281)" stroke="#8BC7FF" stroke-width="1.0625"/>
<rect x="50.4687" y="343.281" width="20.1875" height="3.1875" transform="rotate(-90 50.4687 343.281)" stroke="#8BC7FF" stroke-width="1.0625"/>
<rect x="53.6562" y="343.281" width="20.1875" height="3.1875" transform="rotate(-90 53.6562 343.281)" stroke="#8BC7FF" stroke-width="1.0625"/>
<rect x="56.8437" y="343.281" width="20.1875" height="3.1875" transform="rotate(-90 56.8437 343.281)" stroke="#8BC7FF" stroke-width="1.0625"/>
<rect x="60.0312" y="343.281" width="20.1875" height="3.1875" transform="rotate(-90 60.0312 343.281)" stroke="#8BC7FF" stroke-width="1.0625"/>
<rect x="63.2187" y="343.281" width="20.1875" height="3.1875" transform="rotate(-90 63.2187 343.281)" stroke="#8BC7FF" stroke-width="1.0625"/>
<rect x="66.4062" y="343.281" width="20.1875" height="3.1875" transform="rotate(-90 66.4062 343.281)" stroke="#8BC7FF" stroke-width="1.0625"/>
<rect x="69.5937" y="343.281" width="20.1875" height="3.1875" transform="rotate(-90 69.5937 343.281)" stroke="#8BC7FF" stroke-width="1.0625"/>
<rect x="72.7812" y="343.281" width="20.1875" height="3.1875" transform="rotate(-90 72.7812 343.281)" stroke="#8BC7FF" stroke-width="1.0625"/>
<rect x="75.9687" y="343.281" width="20.1875" height="3.1875" transform="rotate(-90 75.9687 343.281)" stroke="#8BC7FF" stroke-width="1.0625"/>
<rect x="79.1562" y="343.281" width="20.1875" height="3.1875" transform="rotate(-90 79.1562 343.281)" stroke="#8BC7FF" stroke-width="1.0625"/>
<rect x="82.3437" y="343.281" width="20.1875" height="3.1875" transform="rotate(-90 82.3437 343.281)" stroke="#8BC7FF" stroke-width="1.0625"/>
<rect x="33.5312" y="294.531" width="51.9375" height="28.9375" fill="#EDF6FF"/>
<rect x="33.5312" y="294.531" width="51.9375" height="28.9375" stroke="#8BC7FF" stroke-width="1.0625"/>
<rect x="52" y="301.5" width="15" height="15" rx="1.5" fill="#909499"/>
<path d="M59.4382 306.838H62.0632C62.3726 306.838 62.6693 306.961 62.8881 307.18C63.1069 307.399 63.2298 307.695 63.2298 308.005V313.083C63.2298 313.393 63.1069 313.689 62.8881 313.908C62.6693 314.127 62.3726 314.25 62.0632 314.25H59.4382M59.4382 306.838H56.8132C56.5037 306.838 56.207 306.961 55.9882 307.18C55.7694 307.399 55.6465 307.695 55.6465 308.005V313.083C55.6465 313.393 55.7694 313.689 55.9882 313.908C56.207 314.127 56.5037 314.25 56.8132 314.25H59.4382M59.4382 306.838V314.25M56.5944 304.676L57.5423 303.75L58.4902 304.676M60.3861 303.75L61.334 304.676L62.2819 303.75" stroke="white" stroke-width="0.8025" stroke-linecap="round" stroke-linejoin="round"/>
<rect x="147.219" y="297.594" width="27.625" height="21.25" fill="#EDF6FF"/>
<rect x="147.219" y="297.594" width="27.625" height="21.25" stroke="#8BC7FF" stroke-width="1.0625"/>
<rect x="153.531" y="300.719" width="15" height="15" rx="1.5" fill="#909499"/>
<path d="M160.969 306.057H163.594C163.904 306.057 164.201 306.18 164.419 306.399C164.638 306.617 164.761 306.914 164.761 307.224V312.302C164.761 312.612 164.638 312.908 164.419 313.127C164.201 313.346 163.904 313.469 163.594 313.469H160.969M160.969 306.057H158.344C158.035 306.057 157.738 306.18 157.519 306.399C157.301 306.617 157.178 306.914 157.178 307.224V312.302C157.178 312.612 157.301 312.908 157.519 313.127C157.738 313.346 158.035 313.469 158.344 313.469H160.969M160.969 306.057V313.469M158.126 303.895L159.074 302.969L160.021 303.895M161.917 302.969L162.865 303.895L163.813 302.969" stroke="white" stroke-width="0.8025" stroke-linecap="round" stroke-linejoin="round"/>
<rect x="324.531" y="363.469" width="19.125" height="3.1875" transform="rotate(-90 324.531 363.469)" stroke="#8BC7FF" stroke-width="1.0625"/>
<rect x="327.719" y="363.469" width="19.125" height="3.1875" transform="rotate(-90 327.719 363.469)" stroke="#8BC7FF" stroke-width="1.0625"/>
<rect x="330.906" y="363.469" width="19.125" height="3.1875" transform="rotate(-90 330.906 363.469)" stroke="#8BC7FF" stroke-width="1.0625"/>
<rect x="334.094" y="363.469" width="19.125" height="3.1875" transform="rotate(-90 334.094 363.469)" stroke="#8BC7FF" stroke-width="1.0625"/>
<rect x="337.281" y="363.469" width="19.125" height="3.1875" transform="rotate(-90 337.281 363.469)" stroke="#8BC7FF" stroke-width="1.0625"/>
<rect x="340.469" y="363.469" width="19.125" height="3.1875" transform="rotate(-90 340.469 363.469)" stroke="#8BC7FF" stroke-width="1.0625"/>
<rect x="343.656" y="363.469" width="19.125" height="3.1875" transform="rotate(-90 343.656 363.469)" stroke="#8BC7FF" stroke-width="1.0625"/>
<rect x="346.844" y="363.469" width="19.125" height="3.1875" transform="rotate(-90 346.844 363.469)" stroke="#8BC7FF" stroke-width="1.0625"/>
<rect x="350.031" y="363.469" width="19.125" height="3.1875" transform="rotate(-90 350.031 363.469)" stroke="#8BC7FF" stroke-width="1.0625"/>
<rect x="353.219" y="363.469" width="19.125" height="3.1875" transform="rotate(-90 353.219 363.469)" stroke="#8BC7FF" stroke-width="1.0625"/>
<rect x="356.406" y="363.469" width="19.125" height="3.1875" transform="rotate(-90 356.406 363.469)" stroke="#8BC7FF" stroke-width="1.0625"/>
<rect x="359.594" y="363.469" width="19.125" height="3.1875" transform="rotate(-90 359.594 363.469)" stroke="#8BC7FF" stroke-width="1.0625"/>
<rect x="362.781" y="363.469" width="19.125" height="3.1875" transform="rotate(-90 362.781 363.469)" stroke="#8BC7FF" stroke-width="1.0625"/>
<rect x="365.969" y="363.469" width="19.125" height="3.1875" transform="rotate(-90 365.969 363.469)" stroke="#8BC7FF" stroke-width="1.0625"/>
<rect x="369.156" y="363.469" width="19.125" height="3.1875" transform="rotate(-90 369.156 363.469)" stroke="#8BC7FF" stroke-width="1.0625"/>
<rect x="324.531" y="344.344" width="19.125" height="3.1875" transform="rotate(-90 324.531 344.344)" stroke="#8BC7FF" stroke-width="1.0625"/>
<rect x="327.719" y="344.344" width="19.125" height="3.1875" transform="rotate(-90 327.719 344.344)" stroke="#8BC7FF" stroke-width="1.0625"/>
<rect x="330.906" y="344.344" width="19.125" height="3.1875" transform="rotate(-90 330.906 344.344)" stroke="#8BC7FF" stroke-width="1.0625"/>
<rect x="334.094" y="344.344" width="19.125" height="3.1875" transform="rotate(-90 334.094 344.344)" stroke="#8BC7FF" stroke-width="1.0625"/>
<rect x="337.281" y="344.344" width="19.125" height="3.1875" transform="rotate(-90 337.281 344.344)" stroke="#8BC7FF" stroke-width="1.0625"/>
<rect x="340.469" y="344.344" width="19.125" height="3.1875" transform="rotate(-90 340.469 344.344)" stroke="#8BC7FF" stroke-width="1.0625"/>
<rect x="343.656" y="344.344" width="19.125" height="3.1875" transform="rotate(-90 343.656 344.344)" stroke="#8BC7FF" stroke-width="1.0625"/>
<rect x="346.844" y="344.344" width="19.125" height="3.1875" transform="rotate(-90 346.844 344.344)" stroke="#8BC7FF" stroke-width="1.0625"/>
<rect x="350.031" y="344.344" width="19.125" height="3.1875" transform="rotate(-90 350.031 344.344)" stroke="#8BC7FF" stroke-width="1.0625"/>
<rect x="353.219" y="344.344" width="19.125" height="3.1875" transform="rotate(-90 353.219 344.344)" stroke="#8BC7FF" stroke-width="1.0625"/>
<rect x="356.406" y="344.344" width="19.125" height="3.1875" transform="rotate(-90 356.406 344.344)" stroke="#8BC7FF" stroke-width="1.0625"/>
<rect x="359.594" y="344.344" width="19.125" height="3.1875" transform="rotate(-90 359.594 344.344)" stroke="#8BC7FF" stroke-width="1.0625"/>
<rect x="362.781" y="344.344" width="19.125" height="3.1875" transform="rotate(-90 362.781 344.344)" stroke="#8BC7FF" stroke-width="1.0625"/>
<rect x="365.969" y="344.344" width="19.125" height="3.1875" transform="rotate(-90 365.969 344.344)" stroke="#8BC7FF" stroke-width="1.0625"/>
<rect x="369.156" y="344.344" width="19.125" height="3.1875" transform="rotate(-90 369.156 344.344)" stroke="#8BC7FF" stroke-width="1.0625"/>
<rect x="33.5312" y="224.281" width="78.625" height="32.9375" fill="#EDF6FF"/>
<rect x="33.5312" y="224.281" width="78.625" height="32.9375" stroke="#8BC7FF" stroke-width="1.0625"/>
<rect x="65.3438" y="233.25" width="15" height="15" rx="1.5" fill="#FF8282"/>
<path d="M72.885 237.84C73.4897 237.84 73.98 237.35 73.98 236.745C73.98 236.141 73.4897 235.65 72.885 235.65C72.2803 235.65 71.79 236.141 71.79 236.745C71.79 237.35 72.2803 237.84 72.885 237.84Z" stroke="white" stroke-width="0.8025" stroke-linecap="round" stroke-linejoin="round"/>
<path d="M71.5162 239.483H74.2536L74.8011 242.495H73.9799L73.7062 245.506H72.0637L71.79 242.495H70.9688L71.5162 239.483Z" stroke="white" stroke-width="0.8025" stroke-linecap="round" stroke-linejoin="round"/>
<rect x="33.5312" y="257.219" width="78.625" height="37.1875" fill="#EDF6FF"/>
<rect x="33.5312" y="257.219" width="78.625" height="37.1875" stroke="#8BC7FF" stroke-width="1.0625"/>
<rect x="65.3438" y="268.312" width="15" height="15" rx="1.5" fill="#5DABFF"/>
<path d="M72.9006 272.903C73.5054 272.903 73.9956 272.413 73.9956 271.808C73.9956 271.203 73.5054 270.713 72.9006 270.713C72.2959 270.713 71.8057 271.203 71.8057 271.808C71.8057 272.413 72.2959 272.903 72.9006 272.903Z" stroke="white" stroke-width="0.8025" stroke-linecap="round" stroke-linejoin="round"/>
<path d="M71.5312 274.546H74.2687L73.7212 280.568H72.0787L71.5312 274.546Z" stroke="white" stroke-width="0.8025" stroke-linecap="round" stroke-linejoin="round"/>
<path d="M147.219 224.281V160H89.3125V210.469H130.75V224.281H147.219Z" fill="#EDF6FF" stroke="#8BC7FF" stroke-width="1.0625"/>
<path d="M257.188 363.469V432H316.156V382.594H274.719V363.469H257.188Z" fill="#EDF6FF" stroke="#8BC7FF" stroke-width="1.0625"/>
<path d="M147.219 363.469V433.062H89.3125V377.281H120.125V363.469H147.219Z" fill="#EDF6FF" stroke="#8BC7FF" stroke-width="1.0625"/>
<path d="M33 160V224.281H130.75V210.469H89.3125V160H33Z" fill="#EDF6FF" stroke="#8BC7FF" stroke-width="1.0625"/>
<path d="M372.469 432V363.469H274.719V382.594H316.156V432H372.469Z" fill="#EDF6FF" stroke="#8BC7FF" stroke-width="1.0625"/>
<path d="M33 433.062V363.469H120.125V377.281H89.3125V433.062H33Z" fill="#EDF6FF" stroke="#8BC7FF" stroke-width="1.0625"/>
<path d="M147.219 256.156L202.469 256.156L202.469 335.844L174.844 335.844L174.844 297.594L147.219 297.594L147.219 256.156Z" fill="#EDF6FF" stroke="#8BC7FF" stroke-width="1.0625"/>
<path d="M373 160H33V432H373V160Z" stroke="#5DABFF" stroke-width="2.65625"/>
<text transform="translate(106.688 183.688)" fill="#6D7073" style="white-space: pre" xml:space="preserve" font-family="Pretendard" font-size="8" letter-spacing="0em"><tspan x="0.460938" y="7.84375">S2608&#10;</tspan><tspan x="5.58594" y="17.8438">&#xcf54;&#xc544;</tspan></text>
<text transform="translate(37.375 179.906)" fill="#6D7073" style="white-space: pre" xml:space="preserve" font-family="Pretendard" font-size="7" letter-spacing="0em"><tspan x="14.2256" y="6.98828">S2607&#10;</tspan><tspan x="0.300781" y="15.9883">&#xb18d;&#xc5b4;&#xbbfc;&#xd6c4;&#xc0dd;&#xc5f0;&#xad6c;&#xd68c;&#10;</tspan><tspan x="21.4751" y="24.9883">&#xd759;</tspan></text>
<text transform="translate(163.344 268.688)" fill="#6D7073" style="white-space: pre" xml:space="preserve" font-family="Pretendard" font-size="8" letter-spacing="0em"><tspan x="0.0625" y="7.84375">S2616&#10;</tspan><tspan x="1.12891" y="17.8438">&#xd3ec;&#xd1a0;&#xb7a9;</tspan></text>
<text transform="translate(96.875 385.5)" fill="#6D7073" style="white-space: pre" xml:space="preserve" font-family="Pretendard" font-size="7" letter-spacing="0em"><tspan x="11" y="6.98828">S2605&#10;</tspan><tspan x="0.325684" y="15.9883">&#xcd1d;&#xb3d9;&#xc544;&#xb9ac;&#xc5f0;&#xd569;&#xd68c;&#10;</tspan><tspan x="6.37549" y="24.9883">&#xd589;&#xc815;&#xbcf5;&#xc9c0;&#xc2e4;</tspan></text>
<text transform="translate(39.5 388.219)" fill="#6D7073" style="white-space: pre" xml:space="preserve" font-family="Pretendard" font-size="7" letter-spacing="0em"><tspan x="10.9419" y="6.98828">S2606&#10;</tspan><tspan x="0.325684" y="15.9883">&#xcd1d;&#xb3d9;&#xc544;&#xb9ac;&#xc5f0;&#xd569;&#xd68c;</tspan></text>
<text transform="translate(273.438 388.219)" fill="#6D7073" style="white-space: pre" xml:space="preserve" font-family="Pretendard" font-size="8" letter-spacing="0em"><tspan x="0.0390625" y="7.84375">S2602&#10;</tspan><tspan x="2.75" y="17.8438">MIRS</tspan></text>
<text transform="translate(332.812 388.219)" fill="#6D7073" style="white-space: pre" xml:space="preserve" font-family="Pretendard" font-size="8" letter-spacing="0em"><tspan x="0.132812" y="7.84375">S2601&#10;</tspan><tspan x="1.12891" y="17.8438">&#xb514;&#xbe44;&#xc804;</tspan></text>
<rect x="53" y="337" width="15" height="15" rx="1.5" fill="#909499"/>
<path d="M65.75 340.75H63.125V343.375H60.5V346H57.875V348.625H55.25" stroke="white" stroke-width="0.8025" stroke-linecap="round" stroke-linejoin="round"/>
<rect x="341" y="337" width="15" height="15" rx="1.5" fill="#909499"/>
<path d="M353.75 340.75H351.125V343.375H348.5V346H345.875V348.625H343.25" stroke="white" stroke-width="0.8025" stroke-linecap="round" stroke-linejoin="round"/>
</svg>
