<svg width="36" height="36" viewBox="0 0 36 36" fill="none" xmlns="http://www.w3.org/2000/svg">
<path d="M19.5735 3.47382L19.7781 3.66011L24.6114 8.43672H28.7778C29.5907 8.43646 30.3737 8.73988 30.9698 9.28615C31.5659 9.83242 31.931 10.5812 31.9919 11.3823L32 11.6211V29.0879C31.9999 29.891 31.6926 30.6644 31.1399 31.2532C30.5872 31.8419 29.8298 32.2025 29.0194 32.2628L28.7778 32.2723H6.22222C5.40929 32.2726 4.62631 31.9692 4.03023 31.4229C3.43415 30.8766 3.06903 30.1279 3.00806 29.3267L3 29.0879L3 11.6211C2.99974 10.8177 3.30677 10.0439 3.85952 9.45485C4.41228 8.86577 5.16992 8.50493 5.98056 8.44468L6.22222 8.43672H10.3886L15.2219 3.66011C15.7589 3.12943 16.4684 2.80326 17.2251 2.73917C17.9818 2.67509 18.737 2.87719 19.3576 3.30983L19.5735 3.47382ZM28.7778 11.6211H6.22222L6.22222 29.0879H28.7778V11.6211ZM23.8557 22.1621C24.283 22.1621 24.6928 22.3298 24.9949 22.6284C25.2971 22.927 25.4668 23.332 25.4668 23.7543C25.4668 24.1765 25.2971 24.5815 24.9949 24.8801C24.6928 25.1787 24.283 25.3465 23.8557 25.3465L11.0556 25.3628C10.6283 25.3628 10.2185 25.1951 9.91633 24.8965C9.61419 24.5979 9.44445 24.1929 9.44445 23.7706C9.44445 23.3484 9.61419 22.9434 9.91633 22.6448C10.2185 22.3462 10.6283 22.1784 11.0556 22.1784L23.8557 22.1621ZM23.8587 15.8096C24.2693 15.8101 24.6643 15.9655 24.9629 16.2441C25.2615 16.5226 25.4411 16.9034 25.4652 17.3085C25.4893 17.7136 25.3559 18.1126 25.0923 18.4238C24.8288 18.735 24.4549 18.935 24.0472 18.9829L23.8587 18.994L11.0556 18.994C10.6449 18.9936 10.2499 18.8382 9.95135 18.5596C9.65275 18.281 9.47307 17.9003 9.449 17.4951C9.42494 17.09 9.55831 16.6911 9.82187 16.3799C10.0854 16.0687 10.4593 15.8687 10.8671 15.8208L11.0556 15.8096L23.8587 15.8096ZM17.5 5.91148L14.9448 8.43672H20.0552L17.5 5.91148Z" fill="#8BC7FF"/>
</svg>
