<svg width="36" height="36" viewBox="0 0 36 36" fill="none" xmlns="http://www.w3.org/2000/svg">
<path d="M11.7251 24.5625C11.6018 24.5625 11.4786 24.581 11.361 24.62C10.6928 24.842 9.98998 24.9844 9.25006 24.9844C8.51014 24.9844 7.80735 24.842 7.13858 24.62C7.02102 24.581 6.8983 24.5625 6.77507 24.5625C3.57511 24.5625 0.983068 27.2245 1.00008 30.5014C1.0073 31.8862 2.12053 33 3.47508 33H15.025C16.3796 33 17.4928 31.8862 17.5 30.5014C17.5171 27.2245 14.925 24.5625 11.7251 24.5625ZM9.25006 22.875C11.9839 22.875 14.2001 20.6085 14.2001 17.8125C14.2001 15.0165 11.9839 12.75 9.25006 12.75C6.51623 12.75 4.30008 15.0165 4.30008 17.8125C4.30008 20.6085 6.51623 22.875 9.25006 22.875ZM31.525 6H11.7251C10.3602 6 9.25006 7.17334 9.25006 8.6151V11.0625C10.4577 11.0625 11.5755 11.42 12.5501 12.0012V9.375H30.7V24.5625H27.4V21.1875H20.8V24.5625H16.8689C17.8538 25.4426 18.5767 26.6049 18.9154 27.9375H31.525C32.8899 27.9375 34 26.7642 34 25.3224V8.6151C34 7.17334 32.8899 6 31.525 6Z" fill="#8BC7FF"/>
<path d="M9.24998 6H12.55L12.5501 9.375H9.24998V6Z" fill="#8BC7FF"/>
<path d="M30.6999 6H33.9999V9.375H30.7L30.6999 6Z" fill="#8BC7FF"/>
<path d="M30.7 24.5625H33.9999V27.9375H30.6999L30.7 24.5625Z" fill="#8BC7FF"/>
</svg>
