<svg width="117" height="32" viewBox="0 0 117 32" fill="none" xmlns="http://www.w3.org/2000/svg">
<rect x="0.5" y="0.5" width="116" height="31" rx="3.5" stroke="#CACCCC"/>
<path d="M18.3335 23H21.4446C21.8572 23 22.2528 22.8361 22.5446 22.5444C22.8363 22.2527 23.0002 21.857 23.0002 21.4444V10.5556C23.0002 10.143 22.8363 9.74733 22.5446 9.45561C22.2528 9.16389 21.8572 9 21.4446 9H18.3335" stroke="#1778FF" stroke-width="1.55556" stroke-linecap="round" stroke-linejoin="round"/>
<path d="M14.4443 12.1113L18.3332 16.0002L14.4443 19.8891" stroke="#1778FF" stroke-width="1.55556" stroke-linecap="round" stroke-linejoin="round"/>
<path d="M18.3333 16H9" stroke="#1778FF" stroke-width="1.55556" stroke-linecap="round" stroke-linejoin="round"/>
<path d="M41.9609 18.8867V19.6602H32.4219V18.8867H36.7109V16.918H33.6172V13.707H39.8516V12.0664H33.5938V11.3047H40.7539V14.457H34.5312V16.1562H41V16.918H37.6133V18.8867H41.9609ZM51.0078 11.6445V12.6875C51.0078 14 51.0078 15.4883 50.6211 17.75L49.6836 17.6562C50.1055 15.5234 50.1055 13.9648 50.1055 12.6875V12.4062H43.8242V11.6445H51.0078ZM52.2852 18.6523V19.4141H42.793V18.6523H52.2852ZM61.7656 10.543V18.1602H60.8516V10.543H61.7656ZM62.0938 19.9531V20.7266H55.0391V17.3867H55.9531V19.9531H62.0938ZM56.1406 11.2695C57.6992 11.2695 58.8711 12.3242 58.8711 13.8242C58.8711 15.3477 57.6992 16.3906 56.1406 16.3906C54.582 16.3906 53.4102 15.3477 53.4102 13.8242C53.4102 12.3242 54.582 11.2695 56.1406 11.2695ZM56.1406 12.0781C55.0859 12.0781 54.3008 12.8047 54.3125 13.8242C54.3008 14.8672 55.0859 15.582 56.1406 15.582C57.1719 15.582 57.9688 14.8672 57.9688 13.8242C57.9688 12.8047 57.1719 12.0781 56.1406 12.0781ZM66.9453 11.1172L64.2031 21.2773H63.2891L66.0195 11.1172H66.9453ZM76.0859 10.5312V20.9492H75.1719V10.5312H76.0859ZM67.6016 18.1719C68.4922 18.166 69.5117 18.1602 70.5664 18.125V16.9883C69.3184 16.8535 68.5039 16.1445 68.5156 15.1016C68.5039 13.9297 69.5117 13.168 71.0117 13.168C72.5117 13.168 73.5312 13.9297 73.5312 15.1016C73.5312 16.1328 72.7227 16.8418 71.4922 16.9766V18.0898C72.5 18.0488 73.5195 17.9727 74.4805 17.8438L74.5508 18.5469C72.2305 18.9219 69.6758 18.957 67.7422 18.957L67.6016 18.1719ZM74.2109 11.8203V12.5703H67.8242V11.8203H70.5664V10.543H71.4922V11.8203H74.2109ZM71.0117 13.8828C70.0508 13.8828 69.3711 14.375 69.3711 15.1016C69.3711 15.8281 70.0508 16.2969 71.0117 16.2852C71.9844 16.2969 72.6523 15.8281 72.6523 15.1016C72.6523 14.375 71.9844 13.8828 71.0117 13.8828ZM86.5039 10.543V18.4531H85.5781V17.375H83.4219V16.707H85.5781V10.543H86.5039ZM86.7617 19.9531V20.7266H79.3555V17.6797H80.2812V19.9531H86.7617ZM77.8555 15.3711C79.8008 15.3594 82.4023 15.3477 84.6406 15.0664L84.6992 15.7344C83.7676 15.8809 82.7949 15.9746 81.8398 16.0273V18.0898H80.9141V16.0742C79.8594 16.1211 78.8574 16.127 77.9844 16.1211L77.8555 15.3711ZM81.2773 10.9648C82.8008 10.9648 83.8438 11.6914 83.8555 12.7812C83.8438 13.8945 82.8008 14.5859 81.2773 14.5859C79.7422 14.5859 78.6992 13.8945 78.6992 12.7812C78.6992 11.6914 79.7422 10.9648 81.2773 10.9648ZM81.2773 11.668C80.2578 11.6562 79.5664 12.1133 79.5781 12.7812C79.5664 13.4609 80.2578 13.9062 81.2773 13.9062C82.2617 13.9062 82.9648 13.4609 82.9766 12.7812C82.9648 12.1133 82.2617 11.6562 81.2773 11.668ZM96.3477 10.5312V14.7734H98.0352V15.5469H96.3477V20.9492H95.4336V10.5312H96.3477ZM93.6523 11.6562C93.6523 14.6094 92.2695 17.293 88.8711 18.9688L88.3555 18.2422C91.0508 16.9004 92.5156 14.8965 92.7266 12.4297H88.8359V11.6562H93.6523ZM107.258 10.5312V16.1211H106.344V10.5312H107.258ZM101.422 16.6484V17.9141H106.344V16.6484H107.258V20.8086H100.508V16.6484H101.422ZM101.422 20.0586H106.344V18.6523H101.422V20.0586ZM101.633 11.0469C103.215 11.0352 104.363 12.0078 104.363 13.4375C104.363 14.8555 103.215 15.8281 101.633 15.8281C100.051 15.8281 98.9023 14.8555 98.9023 13.4375C98.9023 12.0078 100.051 11.0352 101.633 11.0469ZM101.633 11.8203C100.566 11.8086 99.793 12.4883 99.8047 13.4375C99.793 14.3867 100.566 15.0664 101.633 15.0664C102.688 15.0664 103.461 14.3867 103.461 13.4375C103.461 12.4883 102.688 11.8086 101.633 11.8203Z" fill="#17171B" fill-opacity="0.8"/>
</svg>
