<svg width="82" height="32" viewBox="0 0 82 32" fill="none" xmlns="http://www.w3.org/2000/svg">
<rect x="0.5" y="0.5" width="81" height="31" rx="3.5" stroke="#CACCCC"/>
<path d="M14.6666 23H11.5555C11.143 23 10.7473 22.8361 10.4556 22.5444C10.1638 22.2527 9.99996 21.857 9.99996 21.4444V10.5556C9.99996 10.143 10.1638 9.74733 10.4556 9.45561C10.7473 9.16389 11.143 9 11.5555 9H14.6666" stroke="#1778FF" stroke-width="1.55556" stroke-linecap="round" stroke-linejoin="round"/>
<path d="M19.4443 12.1113L23.3332 16.0002L19.4443 19.8891" stroke="#1778FF" stroke-width="1.55556" stroke-linecap="round" stroke-linejoin="round"/>
<path d="M23.3333 16H14" stroke="#1778FF" stroke-width="1.55556" stroke-linecap="round" stroke-linejoin="round"/>
<path d="M41.9609 18.8867V19.6602H32.4219V18.8867H36.7109V16.918H33.6172V13.707H39.8516V12.0664H33.5938V11.3047H40.7539V14.457H34.5312V16.1562H41V16.918H37.6133V18.8867H41.9609ZM51.0078 11.6445V12.6875C51.0078 14 51.0078 15.4883 50.6211 17.75L49.6836 17.6562C50.1055 15.5234 50.1055 13.9648 50.1055 12.6875V12.4062H43.8242V11.6445H51.0078ZM52.2852 18.6523V19.4141H42.793V18.6523H52.2852ZM55.9531 11.3398C57.4883 11.3516 58.5781 12.7578 58.5898 14.9727C58.5781 17.1875 57.4883 18.5938 55.9531 18.5938C54.4062 18.5938 53.3281 17.1875 53.3281 14.9727C53.3281 12.7578 54.4062 11.3516 55.9531 11.3398ZM55.9531 12.1602C54.9219 12.1719 54.1953 13.2734 54.1953 14.9727C54.1953 16.6719 54.9219 17.7734 55.9531 17.7734C56.9961 17.7734 57.6992 16.6719 57.6992 14.9727C57.6992 13.2734 56.9961 12.1719 55.9531 12.1602ZM61.2266 10.5312V14.6914H62.9727V15.4883H61.2266V20.9492H60.3125V10.5312H61.2266ZM73.0625 15.2891V16.0859H68.7148V17.2227H67.8125V16.0859H63.5352V15.2891H73.0625ZM68.7266 18.0312C68.7266 19.1797 70.4141 20.0117 72.3008 20.1992L72.0078 20.9023C70.3613 20.7266 68.8789 20.0938 68.2578 19.0859C67.6367 20.082 66.166 20.7266 64.5312 20.9023L64.2266 20.1992C66.0898 20.0117 67.7891 19.168 67.7891 18.0312V17.6914H68.7266V18.0312ZM68.2812 10.707C70.5664 10.707 71.9609 11.3867 71.9609 12.6055C71.9609 13.8125 70.5664 14.5156 68.2812 14.5039C65.9961 14.5156 64.5898 13.8125 64.5898 12.6055C64.5898 11.3867 65.9961 10.707 68.2812 10.707ZM68.2812 11.4102C66.582 11.3984 65.5273 11.8555 65.5391 12.6055C65.5273 13.3438 66.582 13.7891 68.2812 13.7891C69.9688 13.7891 71.0234 13.3438 71.0234 12.6055C71.0234 11.8555 69.9688 11.3984 68.2812 11.4102Z" fill="#17171B" fill-opacity="0.8"/>
</svg>
