<svg width="16" height="16" viewBox="0 0 16 16" fill="none" xmlns="http://www.w3.org/2000/svg">
<path d="M7.85712 2.28687C8.09373 2.28687 8.28556 2.47885 8.28569 2.71544V4.04803H11.4659C11.5762 4.04803 11.6825 4.09069 11.7623 4.16689L13.2963 5.63508C13.3807 5.71588 13.4285 5.82796 13.4285 5.94479C13.4285 6.06154 13.3806 6.17317 13.2963 6.25394L11.7623 7.72213C11.6825 7.79839 11.5763 7.84099 11.4659 7.84099H8.25444C8.27419 7.89023 8.28566 7.94375 8.28569 8.00004V12.8561H9.5714C9.80802 12.8561 9.99985 13.0481 9.99997 13.2846C9.9999 13.5213 9.80805 13.7132 9.5714 13.7132H6.14283C5.90618 13.7132 5.71433 13.5213 5.71426 13.2846C5.71439 13.0481 5.90622 12.8561 6.14283 12.8561H7.42855V8.00004C7.42858 7.94375 7.44004 7.89023 7.4598 7.84099H3.28569C3.04899 7.84099 2.85712 7.64912 2.85712 7.41242V4.4766C2.8572 4.23998 3.04905 4.04803 3.28569 4.04803H7.42855V2.71544C7.42867 2.47885 7.6205 2.28687 7.85712 2.28687ZM3.71426 6.98385H11.2941L12.38 5.94423L11.2941 4.90517H3.71426V6.98385Z" fill="white"/>
</svg>
