<svg width="96" height="33" viewBox="0 0 96 33" fill="none" xmlns="http://www.w3.org/2000/svg">
<rect y="7" width="96" height="26" rx="4" fill="#2587FF"/>
<path d="M19.2227 14.4492V20.3555H17.9219V19.2422H15.3438C14.8457 19.7227 14.1191 20.0039 13.293 20.0039C11.6641 20.0039 10.4922 18.9961 10.4922 17.5195C10.4922 16.0664 11.6641 15.0234 13.293 15.0352C14.125 15.0293 14.8516 15.3164 15.3555 15.8086H17.9219V14.4492H19.2227ZM13.293 16.1016C12.3906 16.1016 11.7344 16.6641 11.7344 17.5195C11.7344 18.3867 12.3906 18.9375 13.293 18.9375C14.1719 18.9375 14.8164 18.3867 14.8281 17.5195C14.8164 16.6641 14.1719 16.1016 13.293 16.1016ZM19.3047 20.8008V21.8438H17.9102V23.8242H19.4336V24.8789H11.9102V23.8242H13.4453V21.8438H12.0273V20.8008H19.3047ZM14.7227 23.8242H16.6211V21.8438H14.7227V23.8242ZM15.9766 16.8516C16.0352 17.0625 16.0703 17.2852 16.0703 17.5195C16.0703 17.748 16.0352 17.9707 15.9883 18.1758H17.9219V16.8516H15.9766ZM25.5391 15.0469C27.7773 15.0469 29.4883 16.2305 29.4883 18.0352C29.4883 19.8633 27.7773 21.0469 25.5391 21.0469C23.3125 21.0469 21.6016 19.8633 21.6133 18.0352C21.6016 16.2305 23.3125 15.0469 25.5391 15.0469ZM25.5391 16.1016C24.0039 16.0898 22.8672 16.8633 22.8672 18.0352C22.8672 19.2305 24.0039 19.9805 25.5391 19.9805C27.0859 19.9805 28.2109 19.2305 28.2109 18.0352C28.2109 16.8633 27.0859 16.0898 25.5391 16.1016ZM30.4023 22.6406V23.707H20.7227V22.6406H30.4023ZM40.7734 22.7344V23.8125H31.0938V22.7344H35.2656V21.0117H32.2422V17.543H38.3359V16.2305H32.2188V15.1758H39.625V18.5742H33.543V19.9453H39.8711V21.0117H36.5547V22.7344H40.7734ZM49.8086 14.8242C49.8086 15.9492 51.25 17.0156 53.4766 17.25L53.0195 18.2344C51.2383 18.0176 49.8145 17.2969 49.1406 16.2656C48.4492 17.2969 47.0312 18.0176 45.25 18.2344L44.8047 17.25C47.0195 17.0156 48.4609 15.9492 48.4727 14.8242V14.5312H49.8086V14.8242ZM53.9688 18.7266V19.7812H44.3125V18.7266H53.9688ZM52.7617 20.5312V23.1562H46.7383V23.9531H53.0547V24.9492H45.4609V22.2305H51.4844V21.5039H45.4492V20.5312H52.7617ZM62.9805 14.4492V18.5156H64.6094V19.6055H62.9805V25.0547H61.6914V14.4492H62.9805ZM59.9805 15.375V19.3711H56.418V21.4805C58.0938 21.4688 59.4004 21.3984 60.8828 21.1406L61 22.1953C59.3711 22.4883 57.918 22.5586 55.9961 22.5586H55.1289V18.3281H58.6797V16.4297H55.1055V15.375H59.9805ZM73.8672 14.4492V25.0547H72.5547V14.4492H73.8672ZM68.1602 15.2227C69.7539 15.2227 70.9141 16.6758 70.9258 18.9609C70.9141 21.2695 69.7539 22.7109 68.1602 22.7109C66.5547 22.7109 65.3945 21.2695 65.3945 18.9609C65.3945 16.6758 66.5547 15.2227 68.1602 15.2227ZM68.1602 16.3945C67.2578 16.3945 66.6484 17.3438 66.6484 18.9609C66.6484 20.5898 67.2578 21.5391 68.1602 21.5391C69.0508 21.5391 69.6602 20.5898 69.6602 18.9609C69.6602 17.3438 69.0508 16.3945 68.1602 16.3945ZM84.0273 19.418V20.4609H76.5977V15.375H83.9453V16.4297H77.8867V19.418H84.0273ZM85.1055 22.6172V23.6953H75.4258V22.6172H85.1055Z" fill="white"/>
<path d="M76.8962 0.556699C76.529 -0.185257 75.4708 -0.185259 75.1036 0.556698L71.5181 7.80207C71.1892 8.46672 71.6728 9.24561 72.4144 9.24561L79.5854 9.2456C80.327 9.2456 80.8106 8.46673 80.4817 7.80207L76.8962 0.556699Z" fill="#2587FF"/>
</svg>
