<svg width="48" height="48" viewBox="0 0 48 48" fill="none" xmlns="http://www.w3.org/2000/svg">
<path d="M24.3971 14.8458C27.7859 14.8591 30.3505 17.8173 29.7663 21.0471L29.5384 22.3068C30.1839 21.5445 30.9762 20.9346 31.9152 20.4772C32.8541 20.0008 33.9007 19.7626 35.0548 19.7626C36.6587 19.7626 37.891 20.2199 38.7517 21.1347C39.6124 22.0304 40.0428 23.2692 40.0428 24.851C40.0428 25.4228 39.9842 26.0231 39.8668 26.652L38.165 36H31.6802L33.2353 27.4524C33.2745 27.1476 33.2943 26.938 33.2943 26.8236C33.2943 26.2328 33.1181 25.7752 32.766 25.4513C32.4334 25.1273 31.9639 24.9655 31.3575 24.9655C30.6338 24.9655 30.0274 25.1846 29.5384 25.6229C29.0689 26.0612 28.7558 26.6711 28.5993 27.4524V27.4238L27.0442 36H20.5304L23.4601 19.8768H17.9715L14.8189 36H8.30504L11.4577 19.8768H6L6.9097 14.8455L24.3971 14.8458Z" fill="#1778FF"/>
<path d="M42 14.195L36.032 14.1846L31.7782 18.291L33.2943 8L42 14.195Z" fill="#1778FF"/>
</svg>
