<svg width="89" height="34" viewBox="0 0 89 34" fill="none" xmlns="http://www.w3.org/2000/svg">
<g clip-path="url(#clip0_2806_3504)">
<path fill-rule="evenodd" clip-rule="evenodd" d="M63.1548 9.70832C64.0752 9.70832 64.8367 9.90069 65.4392 10.2856C66.0416 10.6537 66.4599 11.1642 66.6942 11.8168L67.0458 9.88399H72.5934L70.1334 23.7906C69.8991 25.1127 69.4388 26.3177 68.7527 27.4055C68.0833 28.4932 67.1461 29.3634 65.9413 30.016C64.7531 30.6687 63.3138 30.9951 61.6236 30.9951C59.4648 30.9951 57.8163 30.5099 56.6783 29.5393C55.5404 28.5854 54.9714 27.2715 54.9714 25.598C54.9714 25.3638 54.9798 25.1882 54.9966 25.071H60.4688C60.5023 25.8073 61.0379 26.1755 62.0754 26.1755C62.7281 26.1755 63.2637 26.0081 63.682 25.6734C64.1171 25.3387 64.4184 24.711 64.5857 23.7906L64.8868 22.1089C64.4182 22.7615 63.8157 23.2803 63.0794 23.6652C62.3431 24.0334 61.5148 24.2176 60.5944 24.2176C59.172 24.2176 58.0255 23.7405 57.1553 22.7867C56.2851 21.8328 55.85 20.5107 55.85 18.8205C55.85 18.1846 55.9085 17.5653 56.0257 16.9628C56.2934 15.4735 56.7789 14.185 57.4817 13.0972C58.1846 11.9927 59.0296 11.1559 60.017 10.5869C61.0043 10.0012 62.0503 9.70833 63.1548 9.70832ZM64.159 14.5782C63.5566 14.5782 63.021 14.7874 62.5524 15.2057C62.1006 15.6241 61.8077 16.2098 61.6738 16.9628C61.6404 17.1135 61.6236 17.3144 61.6236 17.5655C61.6236 18.1344 61.7742 18.5779 62.0754 18.8959C62.3766 19.1971 62.7866 19.3477 63.3053 19.3477C63.9078 19.3477 64.435 19.1384 64.8868 18.72C65.3554 18.3016 65.6566 17.7159 65.7905 16.9628C65.824 16.8122 65.8408 16.6114 65.8408 16.3605C65.8408 15.7915 65.6901 15.3564 65.3889 15.0552C65.0877 14.7372 64.6777 14.5782 64.159 14.5782Z" fill="#1778FF"/>
<path fill-rule="evenodd" clip-rule="evenodd" d="M81.948 9.5354C83.2274 9.5354 84.3535 9.79343 85.3259 10.3093C86.2982 10.8081 87.0573 11.5217 87.6032 12.4503C88.1491 13.3617 88.4221 14.4281 88.4221 15.6491C88.4221 17.3344 88.0297 18.8477 87.245 20.1891C86.4603 21.5305 85.3771 22.5796 83.9952 23.3363C82.6134 24.0758 81.0609 24.4453 79.3378 24.4453C78.0584 24.4453 76.9325 24.1961 75.9601 23.6974C74.9878 23.1987 74.2285 22.4935 73.6826 21.5821C73.1367 20.6534 72.8637 19.5785 72.8637 18.3575C72.8637 16.6722 73.2561 15.1588 74.0408 13.8175C74.8426 12.4761 75.9345 11.427 77.3164 10.6703C78.6982 9.91365 80.2421 9.5354 81.948 9.5354ZM81.0778 14.4882C80.3443 14.4882 79.7643 14.8235 79.3378 15.4942C78.9113 16.1649 78.6982 16.913 78.6982 17.7384C78.6982 18.3231 78.8346 18.7616 79.1076 19.054C79.3805 19.3463 79.7473 19.4926 80.2079 19.4926C80.9415 19.4926 81.5215 19.1572 81.948 18.4865C82.3745 17.8158 82.5878 17.0678 82.5878 16.2423C82.5878 15.6576 82.4427 15.2191 82.1526 14.9268C81.8797 14.6344 81.5214 14.4882 81.0778 14.4882Z" fill="#1778FF"/>
<path d="M35.6839 24.2656H30.0031L32.0874 12.416L34.7208 9.71678H38.2429L35.6839 24.2656Z" fill="#1778FF"/>
<path d="M16.0444 5.17633C18.9998 5.18832 21.2365 7.85773 20.7269 10.7722L20.5282 11.9089C21.0911 11.221 21.7822 10.6707 22.601 10.2579C23.4199 9.82803 24.3326 9.61306 25.3391 9.61306C26.7379 9.61308 27.8126 10.0257 28.5633 10.8512C29.3139 11.6595 29.6892 12.7773 29.6892 14.2047C29.6892 14.7206 29.6381 15.2623 29.5357 15.8298L28.0516 24.2651H22.3961L23.7523 16.5521C23.7865 16.277 23.8037 16.0879 23.8037 15.9847C23.8037 15.4516 23.6501 15.0387 23.343 14.7463C23.053 14.454 22.6435 14.3079 22.1147 14.3079C21.4835 14.3079 20.9546 14.5057 20.5282 14.9012C20.1187 15.2967 19.8457 15.847 19.7092 16.5521V16.5263L18.353 24.2651H12.6722L15.2273 9.71609H10.4406L7.69107 24.2651H2.01026L4.75974 9.71609H0L0.793367 5.1761H16.0446L16.0444 5.17633Z" fill="#1778FF"/>
<path d="M50.4047 9.61306C51.8036 9.61306 52.8785 10.0257 53.6291 10.8512C54.3797 11.6595 54.7551 12.7773 54.7551 14.2047C54.7551 14.7206 54.7039 15.2623 54.6016 15.8298L53.1172 24.2651H47.462L48.8182 16.5521C48.8523 16.277 48.8694 16.0879 48.8694 15.9847C48.8694 15.4516 48.7159 15.0387 48.4089 14.7463C48.1188 14.454 47.7094 14.3079 47.1805 14.3079C46.5664 14.3079 46.0461 14.5057 45.6196 14.9012C45.1931 15.2967 44.9116 15.8384 44.7751 16.5263L43.4188 24.2651H37.738L40.297 9.71609H45.9778L45.594 11.9089C46.157 11.221 46.8478 10.6707 47.6667 10.2579C48.4855 9.82803 49.3982 9.61308 50.4047 9.61306Z" fill="#1778FF"/>
<path d="M39.2846 7.92947L34.0798 7.92011L30.37 11.6256L31.6922 2.33936L39.2846 7.92947Z" fill="#1778FF"/>
</g>
<defs>
<clipPath id="clip0_2806_3504">
<rect width="88.4221" height="33.3342" fill="white"/>
</clipPath>
</defs>
</svg>
