<svg width="393" height="698" viewBox="0 0 393 698" fill="none" xmlns="http://www.w3.org/2000/svg">
<rect width="393" height="698" fill="#F5F7F9"/>
<path d="M371.9 378.323V309.042H220.418V305.193H182.479V309.042H32.0966V334.06H20V371.725H31.8217V378.323H52.1659H371.9Z" fill="white"/>
<rect x="31.5498" y="309.551" width="51.9003" height="24.9003" fill="#EDF6FF"/>
<rect x="31.5498" y="309.551" width="51.9003" height="24.9003" stroke="#8BC7FF" stroke-width="1.09969"/>
<text fill="#6D7073" style="white-space: pre" xml:space="preserve" font-family="Pretendard" font-size="7" letter-spacing="0em"><tspan x="47.4648" y="324.489">S1233</tspan></text>
<rect x="83.4502" y="309.551" width="16.9003" height="24.9003" fill="#EDF6FF"/>
<rect x="83.4502" y="309.551" width="16.9003" height="24.9003" stroke="#8BC7FF" stroke-width="1.09969"/>
<text transform="translate(87.9004 331.001) rotate(-90)" fill="#6D7073" style="white-space: pre" xml:space="preserve" font-family="Pretendard" font-size="6" letter-spacing="0em"><tspan x="0.410156" y="6.13281">S1239</tspan></text>
<rect x="100.351" y="309.551" width="37.0997" height="24.9003" fill="#EDF6FF"/>
<rect x="100.351" y="309.551" width="37.0997" height="24.9003" stroke="#8BC7FF" stroke-width="1.09969"/>
<text transform="translate(109.4 317.501)" fill="#6D7073" style="white-space: pre" xml:space="preserve" font-family="Pretendard" font-size="7" letter-spacing="0em"><tspan x="0.151855" y="6.98828">S1241</tspan></text>
<rect x="50.2413" y="352.481" width="8.79751" height="25.2928" fill="#EDF6FF"/>
<rect x="50.2413" y="352.481" width="8.79751" height="25.2928" stroke="#8BC7FF" stroke-width="1.09969"/>
<text transform="translate(50.6406 374.127) rotate(-90)" fill="#6D7073" style="white-space: pre" xml:space="preserve" font-family="Pretendard" font-size="6" letter-spacing="0em"><tspan x="0.489258" y="6.13281">S1232</tspan></text>
<rect x="59.0381" y="352.481" width="27.4922" height="25.2928" fill="#EDF6FF"/>
<rect x="59.0381" y="352.481" width="27.4922" height="25.2928" stroke="#8BC7FF" stroke-width="1.09969"/>
<text fill="#6D7073" style="white-space: pre" xml:space="preserve" font-family="Pretendard" font-size="7" letter-spacing="0em"><tspan x="62.8696" y="367.615">S1229</tspan></text>
<rect x="86.5303" y="352.481" width="18.6947" height="25.2928" fill="#EDF6FF"/>
<rect x="86.5303" y="352.481" width="18.6947" height="25.2928" stroke="#8BC7FF" stroke-width="1.09969"/>
<text transform="translate(91.877 373.627) rotate(-90)" fill="#6D7073" style="white-space: pre" xml:space="preserve" font-family="Pretendard" font-size="6" letter-spacing="0em"><tspan x="0.185547" y="6.13281">S1227</tspan></text>
<rect x="105.226" y="352.481" width="57.1838" height="25.2928" fill="#EDF6FF"/>
<rect x="105.226" y="352.481" width="57.1838" height="25.2928" stroke="#8BC7FF" stroke-width="1.09969"/>
<text transform="translate(124.318 360.627)" fill="#6D7073" style="white-space: pre" xml:space="preserve" font-family="Pretendard" font-size="7" letter-spacing="0em"><tspan x="0.196289" y="6.98828">S1221</tspan></text>
<rect x="162.409" y="352.481" width="39.5888" height="25.2928" fill="#EDF6FF"/>
<rect x="162.409" y="352.481" width="39.5888" height="25.2928" stroke="#8BC7FF" stroke-width="1.09969"/>
<text transform="translate(172.703 360.627)" fill="#6D7073" style="white-space: pre" xml:space="preserve" font-family="Pretendard" font-size="7" letter-spacing="0em"><tspan x="0.425293" y="6.98828">&#xad50;&#xbaa9;&#xc2e4;</tspan></text>
<rect x="201.999" y="352.481" width="37.3894" height="25.2928" fill="#EDF6FF"/>
<rect x="201.999" y="352.481" width="37.3894" height="25.2928" stroke="#8BC7FF" stroke-width="1.09969"/>
<text transform="translate(211.193 360.627)" fill="#6D7073" style="white-space: pre" xml:space="preserve" font-family="Pretendard" font-size="7" letter-spacing="0em"><tspan x="0.090332" y="6.98828">S1213</tspan></text>
<rect x="239.388" y="352.481" width="37.3894" height="25.2928" fill="#EDF6FF"/>
<rect x="239.388" y="352.481" width="37.3894" height="25.2928" stroke="#8BC7FF" stroke-width="1.09969"/>
<text transform="translate(248.082 360.627)" fill="#6D7073" style="white-space: pre" xml:space="preserve" font-family="Pretendard" font-size="7" letter-spacing="0em"><tspan x="0.0537109" y="6.98828">S1209</tspan></text>
<path d="M353.755 352.48V364.577H340.559V377.773H276.776V352.48H353.755Z" fill="#EDF6FF" stroke="#8BC7FF" stroke-width="1.09969"/>
<rect x="20.5498" y="355.779" width="10.9969" height="15.3956" fill="#EDF6FF"/>
<rect x="20.5498" y="355.779" width="10.9969" height="15.3956" stroke="#8BC7FF" stroke-width="1.09969"/>
<rect x="220.692" y="309.592" width="38.4891" height="25.2928" fill="#EDF6FF"/>
<rect x="220.692" y="309.592" width="38.4891" height="25.2928" stroke="#8BC7FF" stroke-width="1.09969"/>
<text fill="#6D7073" style="white-space: pre" xml:space="preserve" font-family="Pretendard" font-size="7" letter-spacing="0em"><tspan x="229.943" y="324.727">S1246</tspan></text>
<rect x="259.181" y="309.592" width="37.3894" height="25.2928" fill="#EDF6FF"/>
<rect x="259.181" y="309.592" width="37.3894" height="25.2928" stroke="#8BC7FF" stroke-width="1.09969"/>
<text fill="#6D7073" style="white-space: pre" xml:space="preserve" font-family="Pretendard" font-size="7" letter-spacing="0em"><tspan x="267.987" y="324.727">S1250</tspan></text>
<rect x="296.571" y="309.592" width="18.6947" height="25.2928" fill="#EDF6FF"/>
<rect x="296.571" y="309.592" width="18.6947" height="25.2928" stroke="#8BC7FF" stroke-width="1.09969"/>
<text transform="translate(301.918 331.238) rotate(-90)" fill="#6D7073" style="white-space: pre" xml:space="preserve" font-family="Pretendard" font-size="6" letter-spacing="0em"><tspan x="0.439453" y="6.13281">S1254</tspan></text>
<rect x="315.265" y="309.592" width="18.6947" height="25.2928" fill="#EDF6FF"/>
<rect x="315.265" y="309.592" width="18.6947" height="25.2928" stroke="#8BC7FF" stroke-width="1.09969"/>
<text transform="translate(320.611 331.238) rotate(-90)" fill="#6D7073" style="white-space: pre" xml:space="preserve" font-family="Pretendard" font-size="6" letter-spacing="0em"><tspan x="0.47168" y="6.13281">S1256</tspan></text>
<rect x="333.96" y="309.592" width="38.4891" height="25.2928" fill="#EDF6FF"/>
<rect x="333.96" y="309.592" width="38.4891" height="25.2928" stroke="#8BC7FF" stroke-width="1.09969"/>
<text transform="translate(343.205 317.738)" fill="#6D7073" style="white-space: pre" xml:space="preserve" font-family="Pretendard" font-size="7" letter-spacing="0em"><tspan x="0.0742188" y="6.98828">S1258</tspan></text>
<rect x="148.55" y="309.551" width="17.4502" height="24.9003" fill="#EDF6FF"/>
<rect x="148.55" y="309.551" width="17.4502" height="24.9003" stroke="#8BC7FF" stroke-width="1.09969"/>
<rect x="149.775" y="314.501" width="15" height="15" rx="1.5" fill="#5DABFF"/>
<path d="M157.333 319.091C157.938 319.091 158.428 318.601 158.428 317.996C158.428 317.392 157.938 316.901 157.333 316.901C156.729 316.901 156.238 317.392 156.238 317.996C156.238 318.601 156.729 319.091 157.333 319.091Z" stroke="white" stroke-width="0.8025" stroke-linecap="round" stroke-linejoin="round"/>
<path d="M155.963 320.734H158.7L158.153 326.757H156.51L155.963 320.734Z" stroke="white" stroke-width="0.8025" stroke-linecap="round" stroke-linejoin="round"/>
<rect x="165.999" y="309.551" width="17.4502" height="24.9003" fill="#EDF6FF"/>
<rect x="165.999" y="309.551" width="17.4502" height="24.9003" stroke="#8BC7FF" stroke-width="1.09969"/>
<rect x="167.225" y="314.501" width="15" height="15" rx="1.5" fill="#FF8282"/>
<path d="M174.765 319.091C175.37 319.091 175.86 318.601 175.86 317.996C175.86 317.392 175.37 316.901 174.765 316.901C174.16 316.901 173.67 317.392 173.67 317.996C173.67 318.601 174.16 319.091 174.765 319.091Z" stroke="white" stroke-width="0.8025" stroke-linecap="round" stroke-linejoin="round"/>
<path d="M173.397 320.734H176.134L176.682 323.746H175.861L175.587 326.757H173.945L173.671 323.746H172.85L173.397 320.734Z" stroke="white" stroke-width="0.8025" stroke-linecap="round" stroke-linejoin="round"/>
<rect x="183.304" y="305.194" width="9.8972" height="21.9938" fill="#EDF6FF"/>
<rect x="183.304" y="305.194" width="9.8972" height="21.9938" stroke="#8BC7FF" stroke-width="1.09969"/>
<text transform="translate(184.252 325.191) rotate(-90)" fill="#6D7073" style="white-space: pre" xml:space="preserve" font-family="Pretendard" font-size="6" letter-spacing="0em"><tspan x="0.483398" y="6.13281">S1245</tspan></text>
<rect x="183.55" y="327.551" width="18.9003" height="13.9003" fill="#EDF6FF"/>
<rect x="183.55" y="327.551" width="18.9003" height="13.9003" stroke="#8BC7FF" stroke-width="1.09969"/>
<rect x="185.5" y="327.001" width="15" height="15" rx="1.5" fill="#909499"/>
<path d="M192.938 332.339H195.563C195.873 332.339 196.169 332.462 196.388 332.681C196.607 332.9 196.73 333.196 196.73 333.506V338.584C196.73 338.894 196.607 339.19 196.388 339.409C196.169 339.628 195.873 339.751 195.563 339.751H192.938M192.938 332.339H190.313C190.004 332.339 189.707 332.462 189.488 332.681C189.269 332.9 189.146 333.196 189.146 333.506V338.584C189.146 338.894 189.269 339.19 189.488 339.409C189.707 339.628 190.004 339.751 190.313 339.751H192.938M192.938 332.339V339.751M190.094 330.177L191.042 329.251L191.99 330.177M193.886 329.251L194.834 330.177L195.782 329.251" stroke="white" stroke-width="0.8025" stroke-linecap="round" stroke-linejoin="round"/>
<rect x="353.755" y="360.178" width="9.34735" height="3.29907" stroke="#8BC7FF" stroke-width="1.09969"/>
<rect x="353.755" y="363.477" width="9.34735" height="3.29907" stroke="#8BC7FF" stroke-width="1.09969"/>
<rect x="353.755" y="366.775" width="9.34735" height="3.29907" stroke="#8BC7FF" stroke-width="1.09969"/>
<rect x="353.755" y="370.075" width="9.34735" height="3.29907" stroke="#8BC7FF" stroke-width="1.09969"/>
<rect x="363.103" y="360.178" width="9.34735" height="3.29907" stroke="#8BC7FF" stroke-width="1.09969"/>
<rect x="363.103" y="363.477" width="9.34735" height="3.29907" stroke="#8BC7FF" stroke-width="1.09969"/>
<rect x="363.103" y="366.775" width="9.34735" height="3.29907" stroke="#8BC7FF" stroke-width="1.09969"/>
<rect x="363.103" y="370.075" width="9.34735" height="3.29907" stroke="#8BC7FF" stroke-width="1.09969"/>
<rect x="31.5459" y="360.178" width="9.34735" height="3.29907" stroke="#8BC7FF" stroke-width="1.09969"/>
<rect x="31.5459" y="363.477" width="9.34735" height="3.29907" stroke="#8BC7FF" stroke-width="1.09969"/>
<rect x="31.5459" y="366.775" width="9.34735" height="3.29907" stroke="#8BC7FF" stroke-width="1.09969"/>
<rect x="31.5459" y="370.075" width="9.34735" height="3.29907" stroke="#8BC7FF" stroke-width="1.09969"/>
<rect x="40.8936" y="360.178" width="9.34735" height="3.29907" stroke="#8BC7FF" stroke-width="1.09969"/>
<rect x="40.8936" y="363.477" width="9.34735" height="3.29907" stroke="#8BC7FF" stroke-width="1.09969"/>
<rect x="40.8936" y="366.775" width="9.34735" height="3.29907" stroke="#8BC7FF" stroke-width="1.09969"/>
<rect x="40.8936" y="370.075" width="9.34735" height="3.29907" stroke="#8BC7FF" stroke-width="1.09969"/>
<rect x="201.999" y="310.693" width="9.34735" height="3.29907" stroke="#8BC7FF" stroke-width="1.09969"/>
<rect x="201.999" y="313.992" width="9.34735" height="3.29907" stroke="#8BC7FF" stroke-width="1.09969"/>
<rect x="201.999" y="317.291" width="9.34735" height="3.29907" stroke="#8BC7FF" stroke-width="1.09969"/>
<rect x="211.347" y="310.693" width="9.34735" height="3.29907" stroke="#8BC7FF" stroke-width="1.09969"/>
<rect x="211.347" y="313.992" width="9.34735" height="3.29907" stroke="#8BC7FF" stroke-width="1.09969"/>
<rect x="211.347" y="317.291" width="9.34735" height="3.29907" stroke="#8BC7FF" stroke-width="1.09969"/>
<path d="M373 378.323V309.042H221.518V305.193H182.479V309.042H30.9969V334.06H20V371.725H30.722V378.323H52.1659H373Z" stroke="#5DABFF" stroke-width="2.74922"/>
<text transform="translate(295.982 360.729)" fill="#6D7073" style="white-space: pre" xml:space="preserve" font-family="Pretendard" font-size="7" letter-spacing="0em"><tspan x="0.375488" y="6.98828">&#xd559;&#xc0dd;&#xc9c0;&#xc6d0;&#xd300;</tspan></text>
<rect x="204" y="308.001" width="15" height="15" rx="1.5" fill="#909499"/>
<path d="M216.75 311.751H214.125V314.376H211.5V317.001H208.875V319.626H206.25" stroke="white" stroke-width="0.8025" stroke-linecap="round" stroke-linejoin="round"/>
<rect x="33.5" y="359.501" width="15" height="15" rx="1.5" fill="#909499"/>
<path d="M46.25 363.251H43.625V365.876H41V368.501H38.375V371.126H35.75" stroke="white" stroke-width="0.8025" stroke-linecap="round" stroke-linejoin="round"/>
<rect x="17" y="354.501" width="15" height="15" rx="1.5" fill="#909499"/>
<path d="M24.4382 359.839H27.0632C27.3726 359.839 27.6693 359.962 27.8881 360.181C28.1069 360.4 28.2298 360.696 28.2298 361.006V366.084C28.2298 366.394 28.1069 366.69 27.8881 366.909C27.6693 367.128 27.3726 367.251 27.0632 367.251H24.4382M24.4382 359.839H21.8132C21.5037 359.839 21.207 359.962 20.9882 360.181C20.7694 360.4 20.6465 360.696 20.6465 361.006V366.084C20.6465 366.394 20.7694 366.69 20.9882 366.909C21.207 367.128 21.5037 367.251 21.8132 367.251H24.4382M24.4382 359.839V367.251M21.5944 357.677L22.5423 356.751L23.4902 357.677M25.3861 356.751L26.334 357.677L27.2819 356.751" stroke="white" stroke-width="0.8025" stroke-linecap="round" stroke-linejoin="round"/>
<rect x="355.5" y="359.5" width="15" height="15" rx="1.5" fill="#909499"/>
<path d="M368.25 363.25H365.625V365.875H363V368.5H360.375V371.125H357.75" stroke="white" stroke-width="0.8025" stroke-linecap="round" stroke-linejoin="round"/>
</svg>
