<svg width="393" height="698" viewBox="0 0 393 698" fill="none" xmlns="http://www.w3.org/2000/svg">
<rect width="393" height="698" fill="#F5F7F9"/>
<path d="M371.9 378.323V309.042H220.418V305.193H182.479V309.042H32.0966V334.06H20V371.725H31.8216V378.323H52.1659H371.9Z" fill="white"/>
<rect x="31.5498" y="309.55" width="16.9003" height="24.9003" fill="#EDF6FF"/>
<rect x="31.5498" y="309.55" width="16.9003" height="24.9003" stroke="#8BC7FF" stroke-width="1.09969"/>
<text transform="translate(36 331) rotate(-90)" fill="#6D7073" style="white-space: pre" xml:space="preserve" font-family="Pretendard" font-size="6" letter-spacing="0em"><tspan x="0.307617" y="6.13281">S1333</tspan></text>
<rect x="48.4502" y="309.55" width="16.9003" height="24.9003" fill="#EDF6FF"/>
<rect x="48.4502" y="309.55" width="16.9003" height="24.9003" stroke="#8BC7FF" stroke-width="1.09969"/>
<text transform="translate(52.9004 331) rotate(-90)" fill="#6D7073" style="white-space: pre" xml:space="preserve" font-family="Pretendard" font-size="6" letter-spacing="0em"><tspan x="0.369141" y="6.13281">S1335</tspan></text>
<rect x="65.3506" y="309.55" width="16.9003" height="24.9003" fill="#EDF6FF"/>
<rect x="65.3506" y="309.55" width="16.9003" height="24.9003" stroke="#8BC7FF" stroke-width="1.09969"/>
<text transform="translate(69.8008 330.5) rotate(-90)" fill="#6D7073" style="white-space: pre" xml:space="preserve" font-family="Pretendard" font-size="6" letter-spacing="0em"><tspan x="0.00390625" y="6.13281">S1337</tspan></text>
<rect x="82.251" y="309.55" width="21.9003" height="24.9003" fill="#EDF6FF"/>
<rect x="82.251" y="309.55" width="21.9003" height="24.9003" stroke="#8BC7FF" stroke-width="1.09969"/>
<text fill="#6D7073" style="white-space: pre" xml:space="preserve" font-family="Pretendard" font-size="7" letter-spacing="0em"><tspan x="84.1265" y="319.988">&#xd559;&#xad70;&#xb2e8;&#10;</tspan><tspan x="84.1265" y="328.988">&#xd589;&#xc815;&#xc2e4;</tspan></text>
<rect x="104.151" y="309.55" width="33.2991" height="24.9003" fill="#EDF6FF"/>
<rect x="104.151" y="309.55" width="33.2991" height="24.9003" stroke="#8BC7FF" stroke-width="1.09969"/>
<text transform="translate(110.801 317.5)" fill="#6D7073" style="white-space: pre" xml:space="preserve" font-family="Pretendard" font-size="7" letter-spacing="0em"><tspan x="0.494629" y="6.98828">S1341</tspan></text>
<rect x="50.2413" y="352.481" width="8.79751" height="25.2928" fill="#EDF6FF"/>
<rect x="50.2413" y="352.481" width="8.79751" height="25.2928" stroke="#8BC7FF" stroke-width="1.09969"/>
<text transform="translate(50.6406 374.128) rotate(-90)" fill="#6D7073" style="white-space: pre" xml:space="preserve" font-family="Pretendard" font-size="6" letter-spacing="0em"><tspan x="0.398438" y="6.13281">S1332</tspan></text>
<rect x="59.0381" y="352.481" width="8.79751" height="25.2928" fill="#EDF6FF"/>
<rect x="59.0381" y="352.481" width="8.79751" height="25.2928" stroke="#8BC7FF" stroke-width="1.09969"/>
<text transform="translate(59.4375 373.628) rotate(-90)" fill="#6D7073" style="white-space: pre" xml:space="preserve" font-family="Pretendard" font-size="6" letter-spacing="0em"><tspan x="0.34375" y="6.13281">S1331</tspan></text>
<rect x="67.837" y="352.481" width="8.79751" height="25.2928" fill="#EDF6FF"/>
<rect x="67.837" y="352.481" width="8.79751" height="25.2928" stroke="#8BC7FF" stroke-width="1.09969"/>
<text transform="translate(68.2363 374.128) rotate(-90)" fill="#6D7073" style="white-space: pre" xml:space="preserve" font-family="Pretendard" font-size="6" letter-spacing="0em"><tspan x="0.37207" y="6.13281">S1330</tspan></text>
<rect x="76.6338" y="352.481" width="8.79751" height="25.2928" fill="#EDF6FF"/>
<rect x="76.6338" y="352.481" width="8.79751" height="25.2928" stroke="#8BC7FF" stroke-width="1.09969"/>
<text transform="translate(77.0332 374.128) rotate(-90)" fill="#6D7073" style="white-space: pre" xml:space="preserve" font-family="Pretendard" font-size="6" letter-spacing="0em"><tspan x="0.410156" y="6.13281">S1329</tspan></text>
<rect x="85.4307" y="352.481" width="36.2768" height="25.2928" fill="#EDF6FF"/>
<rect x="85.4307" y="352.481" width="36.2768" height="25.2928" stroke="#8BC7FF" stroke-width="1.09969"/>
<text fill="#6D7073" style="white-space: pre" xml:space="preserve" font-family="Pretendard" font-size="7" letter-spacing="0em"><tspan x="93.605" y="367.616">S1325</tspan></text>
<rect x="121.708" y="352.481" width="36.2768" height="25.2928" fill="#EDF6FF"/>
<rect x="121.708" y="352.481" width="36.2768" height="25.2928" stroke="#8BC7FF" stroke-width="1.09969"/>
<text fill="#6D7073" style="white-space: pre" xml:space="preserve" font-family="Pretendard" font-size="7" letter-spacing="0em"><tspan x="130.436" y="367.616">S1321</tspan></text>
<rect x="157.985" y="352.481" width="19.2446" height="25.2928" fill="#EDF6FF"/>
<rect x="157.985" y="352.481" width="19.2446" height="25.2928" stroke="#8BC7FF" stroke-width="1.09969"/>
<text transform="translate(163.607 373.628) rotate(-90)" fill="#6D7073" style="white-space: pre" xml:space="preserve" font-family="Pretendard" font-size="6" letter-spacing="0em"><tspan x="0.355469" y="6.13281">S1319</tspan></text>
<rect x="177.23" y="352.481" width="23.818" height="25.2928" fill="#EDF6FF"/>
<rect x="177.23" y="352.481" width="23.818" height="25.2928" stroke="#8BC7FF" stroke-width="1.09969"/>
<rect x="201.048" y="352.481" width="18.6947" height="25.2928" fill="#EDF6FF"/>
<rect x="201.048" y="352.481" width="18.6947" height="25.2928" stroke="#8BC7FF" stroke-width="1.09969"/>
<text transform="translate(206.395 373.628) rotate(-90)" fill="#6D7073" style="white-space: pre" xml:space="preserve" font-family="Pretendard" font-size="6" letter-spacing="0em"><tspan x="0.405273" y="6.13281">S1315</tspan></text>
<rect x="219.741" y="352.481" width="18.6947" height="25.2928" fill="#EDF6FF"/>
<rect x="219.741" y="352.481" width="18.6947" height="25.2928" stroke="#8BC7FF" stroke-width="1.09969"/>
<text transform="translate(225.088 373.628) rotate(-90)" fill="#6D7073" style="white-space: pre" xml:space="preserve" font-family="Pretendard" font-size="6" letter-spacing="0em"><tspan x="0.34375" y="6.13281">S1313</tspan></text>
<rect x="238.437" y="352.481" width="37.3894" height="25.2928" fill="#EDF6FF"/>
<rect x="238.437" y="352.481" width="37.3894" height="25.2928" stroke="#8BC7FF" stroke-width="1.09969"/>
<text transform="translate(246.631 360.628)" fill="#6D7073" style="white-space: pre" xml:space="preserve" font-family="Pretendard" font-size="7" letter-spacing="0em"><tspan x="0.447754" y="6.98828">S1309</tspan></text>
<rect x="275.825" y="352.481" width="9.89719" height="25.2928" fill="#EDF6FF"/>
<rect x="275.825" y="352.481" width="9.89719" height="25.2928" stroke="#8BC7FF" stroke-width="1.09969"/>
<text transform="translate(276.773 374.128) rotate(-90)" fill="#6D7073" style="white-space: pre" xml:space="preserve" font-family="Pretendard" font-size="6" letter-spacing="0em"><tspan x="0.404297" y="6.13281">S1308</tspan></text>
<rect x="285.724" y="352.481" width="9.89719" height="25.2928" fill="#EDF6FF"/>
<rect x="285.724" y="352.481" width="9.89719" height="25.2928" stroke="#8BC7FF" stroke-width="1.09969"/>
<text transform="translate(286.672 373.628) rotate(-90)" fill="#6D7073" style="white-space: pre" xml:space="preserve" font-family="Pretendard" font-size="6" letter-spacing="0em"><tspan x="0.126953" y="6.13281">S1307</tspan></text>
<rect x="295.62" y="352.481" width="9.89719" height="25.2928" fill="#EDF6FF"/>
<rect x="295.62" y="352.481" width="9.89719" height="25.2928" stroke="#8BC7FF" stroke-width="1.09969"/>
<text transform="translate(296.568 374.128) rotate(-90)" fill="#6D7073" style="white-space: pre" xml:space="preserve" font-family="Pretendard" font-size="6" letter-spacing="0em"><tspan x="0.383789" y="6.13281">S1306</tspan></text>
<rect x="305.519" y="352.481" width="48.3863" height="25.2928" fill="#EDF6FF"/>
<rect x="305.519" y="352.481" width="48.3863" height="25.2928" stroke="#8BC7FF" stroke-width="1.09969"/>
<g opacity="0.35">
<rect width="10.9969" height="16.4953" transform="translate(20 355.229)" fill="#CDD0D4"/>
</g>
<rect x="220.692" y="309.591" width="37.3894" height="25.2928" fill="#EDF6FF"/>
<rect x="220.692" y="309.591" width="37.3894" height="25.2928" stroke="#8BC7FF" stroke-width="1.09969"/>
<text fill="#6D7073" style="white-space: pre" xml:space="preserve" font-family="Pretendard" font-size="7" letter-spacing="0em"><tspan x="229.235" y="324.726">S1346</tspan></text>
<rect x="258.081" y="309.591" width="37.3894" height="25.2928" fill="#EDF6FF"/>
<rect x="258.081" y="309.591" width="37.3894" height="25.2928" stroke="#8BC7FF" stroke-width="1.09969"/>
<text fill="#6D7073" style="white-space: pre" xml:space="preserve" font-family="Pretendard" font-size="7" letter-spacing="0em"><tspan x="266.781" y="324.726">S1350</tspan></text>
<rect x="295.472" y="309.591" width="18.6947" height="25.2928" fill="#EDF6FF"/>
<rect x="295.472" y="309.591" width="18.6947" height="25.2928" stroke="#8BC7FF" stroke-width="1.09969"/>
<text transform="translate(300.818 330.737) rotate(-90)" fill="#6D7073" style="white-space: pre" xml:space="preserve" font-family="Pretendard" font-size="6" letter-spacing="0em"><tspan x="0.405273" y="6.13281">S1351</tspan></text>
<rect x="314.165" y="309.591" width="38.4891" height="25.2928" fill="#EDF6FF"/>
<rect x="314.165" y="309.591" width="38.4891" height="25.2928" stroke="#8BC7FF" stroke-width="1.09969"/>
<text transform="translate(322.91 317.737)" fill="#6D7073" style="white-space: pre" xml:space="preserve" font-family="Pretendard" font-size="7" letter-spacing="0em"><tspan x="0.430664" y="6.98828">S1353</tspan></text>
<rect x="352.655" y="309.591" width="9.89719" height="25.2928" fill="#EDF6FF"/>
<rect x="352.655" y="309.591" width="9.89719" height="25.2928" stroke="#8BC7FF" stroke-width="1.09969"/>
<text transform="translate(353.604 330.737) rotate(-90)" fill="#6D7073" style="white-space: pre" xml:space="preserve" font-family="Pretendard" font-size="6" letter-spacing="0em"><tspan x="0.0654297" y="6.13281">S1357</tspan></text>
<rect x="362.552" y="309.591" width="9.89719" height="25.2928" fill="#EDF6FF"/>
<rect x="362.552" y="309.591" width="9.89719" height="25.2928" stroke="#8BC7FF" stroke-width="1.09969"/>
<text transform="translate(363.5 331.237) rotate(-90)" fill="#6D7073" style="white-space: pre" xml:space="preserve" font-family="Pretendard" font-size="6" letter-spacing="0em"><tspan x="0.401367" y="6.13281">S1358</tspan></text>
<rect x="148.55" y="309.55" width="17.4502" height="24.9003" fill="#EDF6FF"/>
<rect x="148.55" y="309.55" width="17.4502" height="24.9003" stroke="#8BC7FF" stroke-width="1.09969"/>
<rect x="149.775" y="314.5" width="15" height="15" rx="1.5" fill="#5DABFF"/>
<path d="M157.333 319.09C157.938 319.09 158.428 318.6 158.428 317.995C158.428 317.391 157.938 316.9 157.333 316.9C156.729 316.9 156.238 317.391 156.238 317.995C156.238 318.6 156.729 319.09 157.333 319.09Z" stroke="white" stroke-width="0.8025" stroke-linecap="round" stroke-linejoin="round"/>
<path d="M155.963 320.733H158.7L158.153 326.756H156.51L155.963 320.733Z" stroke="white" stroke-width="0.8025" stroke-linecap="round" stroke-linejoin="round"/>
<rect x="165.999" y="309.55" width="17.4502" height="24.9003" fill="#EDF6FF"/>
<rect x="165.999" y="309.55" width="17.4502" height="24.9003" stroke="#8BC7FF" stroke-width="1.09969"/>
<rect x="167.225" y="314.5" width="15" height="15" rx="1.5" fill="#FF8282"/>
<path d="M174.765 319.09C175.37 319.09 175.86 318.6 175.86 317.995C175.86 317.391 175.37 316.9 174.765 316.9C174.16 316.9 173.67 317.391 173.67 317.995C173.67 318.6 174.16 319.09 174.765 319.09Z" stroke="white" stroke-width="0.8025" stroke-linecap="round" stroke-linejoin="round"/>
<path d="M173.397 320.733H176.134L176.682 323.745H175.861L175.587 326.756H173.945L173.671 323.745H172.85L173.397 320.733Z" stroke="white" stroke-width="0.8025" stroke-linecap="round" stroke-linejoin="round"/>
<rect x="183.304" y="305.194" width="18.6947" height="21.9938" fill="#EDF6FF"/>
<rect x="183.304" y="305.194" width="18.6947" height="21.9938" stroke="#8BC7FF" stroke-width="1.09969"/>
<text transform="translate(183.65 312.191)" fill="#6D7073" style="white-space: pre" xml:space="preserve" font-family="Pretendard" font-size="6" letter-spacing="0em"><tspan x="0.348633" y="6.13281">S1345</tspan></text>
<rect x="183.304" y="327.189" width="18.6947" height="7.25031" fill="#EDF6FF"/>
<rect x="183.304" y="327.189" width="18.6947" height="7.25031" stroke="#8BC7FF" stroke-width="1.09969"/>
<rect x="185.15" y="326.639" width="15" height="15" rx="1.5" fill="#909499"/>
<path d="M192.589 331.977H195.214C195.523 331.977 195.82 332.1 196.038 332.319C196.257 332.537 196.38 332.834 196.38 333.144V338.222C196.38 338.531 196.257 338.828 196.038 339.047C195.82 339.266 195.523 339.389 195.214 339.389H192.589M192.589 331.977H189.964C189.654 331.977 189.357 332.1 189.139 332.319C188.92 332.537 188.797 332.834 188.797 333.144V338.222C188.797 338.531 188.92 338.828 189.139 339.047C189.357 339.266 189.654 339.389 189.964 339.389H192.589M192.589 331.977V339.389M189.745 329.815L190.693 328.889L191.641 329.815M193.536 328.889L194.484 329.815L195.432 328.889" stroke="white" stroke-width="0.8025" stroke-linecap="round" stroke-linejoin="round"/>
<rect x="353.755" y="360.177" width="9.34735" height="3.29907" stroke="#8BC7FF" stroke-width="1.09969"/>
<rect x="353.755" y="363.476" width="9.34735" height="3.29907" stroke="#8BC7FF" stroke-width="1.09969"/>
<rect x="353.755" y="366.774" width="9.34735" height="3.29907" stroke="#8BC7FF" stroke-width="1.09969"/>
<rect x="353.755" y="370.074" width="9.34735" height="3.29907" stroke="#8BC7FF" stroke-width="1.09969"/>
<rect x="363.103" y="360.177" width="9.34735" height="3.29907" stroke="#8BC7FF" stroke-width="1.09969"/>
<rect x="363.103" y="363.476" width="9.34735" height="3.29907" stroke="#8BC7FF" stroke-width="1.09969"/>
<rect x="363.103" y="366.775" width="9.34735" height="3.29907" stroke="#8BC7FF" stroke-width="1.09969"/>
<rect x="363.103" y="370.074" width="9.34735" height="3.29907" stroke="#8BC7FF" stroke-width="1.09969"/>
<rect x="31.5459" y="360.177" width="9.34735" height="3.29907" stroke="#8BC7FF" stroke-width="1.09969"/>
<rect x="31.5459" y="363.476" width="9.34735" height="3.29907" stroke="#8BC7FF" stroke-width="1.09969"/>
<rect x="31.5459" y="366.775" width="9.34735" height="3.29907" stroke="#8BC7FF" stroke-width="1.09969"/>
<rect x="31.5459" y="370.074" width="9.34735" height="3.29907" stroke="#8BC7FF" stroke-width="1.09969"/>
<rect x="40.8936" y="360.177" width="9.34735" height="3.29907" stroke="#8BC7FF" stroke-width="1.09969"/>
<rect x="40.8936" y="363.476" width="9.34735" height="3.29907" stroke="#8BC7FF" stroke-width="1.09969"/>
<rect x="40.8936" y="366.775" width="9.34735" height="3.29907" stroke="#8BC7FF" stroke-width="1.09969"/>
<rect x="40.8936" y="370.074" width="9.34735" height="3.29907" stroke="#8BC7FF" stroke-width="1.09969"/>
<rect x="201.999" y="310.692" width="9.34735" height="3.29907" stroke="#8BC7FF" stroke-width="1.09969"/>
<rect x="201.999" y="313.991" width="9.34735" height="3.29907" stroke="#8BC7FF" stroke-width="1.09969"/>
<rect x="201.999" y="317.29" width="9.34735" height="3.29907" stroke="#8BC7FF" stroke-width="1.09969"/>
<rect x="211.347" y="310.692" width="9.34735" height="3.29907" stroke="#8BC7FF" stroke-width="1.09969"/>
<rect x="211.347" y="313.991" width="9.34735" height="3.29907" stroke="#8BC7FF" stroke-width="1.09969"/>
<rect x="211.347" y="317.29" width="9.34735" height="3.29907" stroke="#8BC7FF" stroke-width="1.09969"/>
<path d="M373 378.323V309.042H221.518V305.193H182.479V309.042H30.9969V334.06H20V371.725H30.722V378.323H52.1659H373Z" stroke="#5DABFF" stroke-width="2.74922"/>
<text transform="translate(175.217 351.932)" fill="#6D7073" stroke="#EDF6FF" style="white-space: pre" stroke-width="0.879751" stroke-linejoin="round" xml:space="preserve" font-family="Pretendard" font-size="6" letter-spacing="0em"><tspan x="7.81445" y="6.13281">&#xba85;&#xc9c0;&#10;</tspan><tspan x="0.0361328" y="14.1328">&#xbbf8;&#xb514;&#xc5b4;&#xc13c;&#xd130;&#10;</tspan><tspan x="5.22168" y="22.1328">&#xbc29;&#xc1a1;&#xad6d;</tspan></text>
<text transform="translate(305.695 356.328)" fill="#6D7073" stroke="#EDF6FF" style="white-space: pre" stroke-width="0.879751" stroke-linejoin="round" xml:space="preserve" font-family="Pretendard" font-size="6" letter-spacing="0em"><tspan x="0.40332" y="6.13281">&#xc778;&#xacf5;&#xc9c0;&#xb2a5;&#xb7;&#xc18c;&#xd504;&#xd2b8;&#xc6e8;&#xc5b4;&#10;</tspan><tspan x="5.59766" y="14.1328">&#xc735;&#xd569;&#xb300;&#xd559; &#xad50;&#xd559;&#xd300;</tspan></text>
<rect x="204" y="308" width="15" height="15" rx="1.5" fill="#909499"/>
<path d="M216.75 311.75H214.125V314.375H211.5V317H208.875V319.625H206.25" stroke="white" stroke-width="0.8025" stroke-linecap="round" stroke-linejoin="round"/>
<rect x="33.5" y="359.5" width="15" height="15" rx="1.5" fill="#909499"/>
<path d="M46.25 363.25H43.625V365.875H41V368.5H38.375V371.125H35.75" stroke="white" stroke-width="0.8025" stroke-linecap="round" stroke-linejoin="round"/>
<rect x="355.5" y="359.5" width="15" height="15" rx="1.5" fill="#909499"/>
<path d="M368.25 363.25H365.625V365.875H363V368.5H360.375V371.125H357.75" stroke="white" stroke-width="0.8025" stroke-linecap="round" stroke-linejoin="round"/>
</svg>
