<svg width="393" height="698" viewBox="0 0 393 698" fill="none" xmlns="http://www.w3.org/2000/svg">
<rect width="393" height="698" fill="#F5F7F9"/>
<path d="M366.441 386.623V295.268H297.593V286H228.481V295.268H27.5V386.623H46.8302H228.481H274.556H366.441Z" fill="white"/>
<rect x="273.762" y="296.063" width="46.6044" height="36.0125" fill="#EDF6FF"/>
<rect x="273.762" y="296.063" width="46.6044" height="36.0125" stroke="#8BC7FF" stroke-width="1.05919"/>
<text fill="#6D7073" style="white-space: pre" xml:space="preserve" font-family="Pretendard" font-size="7" letter-spacing="0em"><tspan x="286.681" y="316.558">S4725</tspan></text>
<rect x="320.367" y="296.063" width="46.6044" height="36.0125" fill="#EDF6FF"/>
<rect x="320.367" y="296.063" width="46.6044" height="36.0125" stroke="#8BC7FF" stroke-width="1.05919"/>
<text transform="translate(333.169 309.569)" fill="#6D7073" style="white-space: pre" xml:space="preserve" font-family="Pretendard" font-size="7" letter-spacing="0em"><tspan x="0.273438" y="6.98828">S4727</tspan></text>
<rect x="229.276" y="319.365" width="11.6511" height="12.7103" fill="#EDF6FF"/>
<rect x="229.276" y="319.365" width="11.6511" height="12.7103" stroke="#8BC7FF" stroke-width="1.05919"/>
<rect x="240.927" y="319.365" width="11.6511" height="12.7103" fill="#EDF6FF"/>
<rect x="240.927" y="319.365" width="11.6511" height="12.7103" stroke="#8BC7FF" stroke-width="1.05919"/>
<rect x="229.276" y="286.53" width="23.3022" height="32.8349" fill="#EDF6FF"/>
<rect x="229.276" y="286.53" width="23.3022" height="32.8349" stroke="#8BC7FF" stroke-width="1.05919"/>
<text fill="#6D7073" style="white-space: pre" xml:space="preserve" font-family="Pretendard" font-size="7" letter-spacing="0em"><tspan x="230.471" y="305.436">S4723</tspan></text>
<rect x="46.0355" y="350.08" width="45.5452" height="36.0125" fill="#EDF6FF"/>
<rect x="46.0355" y="350.08" width="45.5452" height="36.0125" stroke="#8BC7FF" stroke-width="1.05919"/>
<text fill="#6D7073" style="white-space: pre" xml:space="preserve" font-family="Pretendard" font-size="7" letter-spacing="0em"><tspan x="58.8716" y="370.575">S4713</tspan></text>
<rect x="91.5804" y="350.08" width="45.5452" height="36.0125" fill="#EDF6FF"/>
<rect x="91.5804" y="350.08" width="45.5452" height="36.0125" stroke="#8BC7FF" stroke-width="1.05919"/>
<text fill="#6D7073" style="white-space: pre" xml:space="preserve" font-family="Pretendard" font-size="7" letter-spacing="0em"><tspan x="105.042" y="370.575">S4711</tspan></text>
<rect x="137.125" y="350.08" width="45.5452" height="36.0125" fill="#EDF6FF"/>
<rect x="137.125" y="350.08" width="45.5452" height="36.0125" stroke="#8BC7FF" stroke-width="1.05919"/>
<text fill="#6D7073" style="white-space: pre" xml:space="preserve" font-family="Pretendard" font-size="7" letter-spacing="0em"><tspan x="149.476" y="370.575">S4709</tspan></text>
<rect x="182.671" y="350.08" width="45.5452" height="36.0125" fill="#EDF6FF"/>
<rect x="182.671" y="350.08" width="45.5452" height="36.0125" stroke="#8BC7FF" stroke-width="1.05919"/>
<text fill="#6D7073" style="white-space: pre" xml:space="preserve" font-family="Pretendard" font-size="7" letter-spacing="0em"><tspan x="195.306" y="370.575">S4707</tspan></text>
<rect x="228.216" y="350.08" width="43.9408" height="36.0125" fill="#EDF6FF"/>
<rect x="228.216" y="350.08" width="43.9408" height="36.0125" stroke="#8BC7FF" stroke-width="1.05919"/>
<text fill="#6D7073" style="white-space: pre" xml:space="preserve" font-family="Pretendard" font-size="7" letter-spacing="0em"><tspan x="239.823" y="370.575">S4705</tspan></text>
<rect x="272.157" y="350.08" width="23.9574" height="36.0125" fill="#EDF6FF"/>
<rect x="272.157" y="350.08" width="23.9574" height="36.0125" stroke="#8BC7FF" stroke-width="1.05919"/>
<text fill="#6D7073" style="white-space: pre" xml:space="preserve" font-family="Pretendard" font-size="7" letter-spacing="0em"><tspan x="273.677" y="370.575">S4704</tspan></text>
<rect x="296.115" y="350.08" width="23.9574" height="36.0125" fill="#EDF6FF"/>
<rect x="296.115" y="350.08" width="23.9574" height="36.0125" stroke="#8BC7FF" stroke-width="1.05919"/>
<text fill="#6D7073" style="white-space: pre" xml:space="preserve" font-family="Pretendard" font-size="7" letter-spacing="0em"><tspan x="297.659" y="370.575">S4703</tspan></text>
<rect x="320.072" y="350.08" width="10.9408" height="36.0125" fill="#EDF6FF"/>
<rect x="320.072" y="350.08" width="10.9408" height="36.0125" stroke="#8BC7FF" stroke-width="1.05919"/>
<text transform="translate(321.042 381.587) rotate(-90)" fill="#6D7073" style="white-space: pre" xml:space="preserve" font-family="Pretendard" font-size="7" letter-spacing="0em"><tspan x="0.12207" y="6.98828">S4702-1</tspan></text>
<rect x="331.013" y="350.08" width="10.9408" height="36.0125" fill="#EDF6FF"/>
<rect x="331.013" y="350.08" width="10.9408" height="36.0125" stroke="#8BC7FF" stroke-width="1.05919"/>
<text transform="translate(331.983 382.087) rotate(-90)" fill="#6D7073" style="white-space: pre" xml:space="preserve" font-family="Pretendard" font-size="7" letter-spacing="0em"><tspan x="0.215332" y="6.98828">S4702-2</tspan></text>
<rect x="341.953" y="350.08" width="23.9574" height="36.0125" fill="#EDF6FF"/>
<rect x="341.953" y="350.08" width="23.9574" height="36.0125" stroke="#8BC7FF" stroke-width="1.05919"/>
<text fill="#6D7073" style="white-space: pre" xml:space="preserve" font-family="Pretendard" font-size="7" letter-spacing="0em"><tspan x="344.123" y="370.575">S4701</tspan></text>
<rect x="252.577" y="296.063" width="10.5919" height="3.17757" stroke="#8BC7FF" stroke-width="1.05919"/>
<rect x="252.577" y="299.241" width="10.5919" height="3.17757" stroke="#8BC7FF" stroke-width="1.05919"/>
<rect x="252.577" y="302.418" width="10.5919" height="3.17757" stroke="#8BC7FF" stroke-width="1.05919"/>
<rect x="252.577" y="305.595" width="10.5919" height="3.17757" stroke="#8BC7FF" stroke-width="1.05919"/>
<rect x="263.169" y="296.063" width="10.5919" height="3.17757" stroke="#8BC7FF" stroke-width="1.05919"/>
<rect x="263.169" y="299.241" width="10.5919" height="3.17757" stroke="#8BC7FF" stroke-width="1.05919"/>
<rect x="263.169" y="302.418" width="10.5919" height="3.17757" stroke="#8BC7FF" stroke-width="1.05919"/>
<rect x="263.169" y="305.595" width="10.5919" height="3.17757" stroke="#8BC7FF" stroke-width="1.05919"/>
<rect x="28.0296" y="307.713" width="9.00312" height="3.17757" stroke="#8BC7FF" stroke-width="1.05919"/>
<rect x="28.0296" y="310.891" width="9.00312" height="3.17757" stroke="#8BC7FF" stroke-width="1.05919"/>
<rect x="28.0296" y="314.069" width="9.00312" height="3.17757" stroke="#8BC7FF" stroke-width="1.05919"/>
<rect x="28.0296" y="317.245" width="9.00312" height="3.17757" stroke="#8BC7FF" stroke-width="1.05919"/>
<rect x="28.0296" y="320.423" width="9.00312" height="3.17757" stroke="#8BC7FF" stroke-width="1.05919"/>
<rect x="28.0296" y="323.601" width="9.00312" height="3.17757" stroke="#8BC7FF" stroke-width="1.05919"/>
<rect x="28.0296" y="326.779" width="9.00312" height="3.17757" stroke="#8BC7FF" stroke-width="1.05919"/>
<rect x="28.0296" y="329.956" width="9.00312" height="3.17757" stroke="#8BC7FF" stroke-width="1.05919"/>
<rect x="28.0296" y="333.134" width="9.00312" height="3.17757" stroke="#8BC7FF" stroke-width="1.05919"/>
<rect x="28.0296" y="336.311" width="9.00312" height="3.17757" stroke="#8BC7FF" stroke-width="1.05919"/>
<rect x="28.0296" y="339.489" width="9.00312" height="3.17757" stroke="#8BC7FF" stroke-width="1.05919"/>
<rect x="28.0296" y="342.666" width="9.00312" height="3.17757" stroke="#8BC7FF" stroke-width="1.05919"/>
<rect x="28.0296" y="345.844" width="9.00312" height="3.17757" stroke="#8BC7FF" stroke-width="1.05919"/>
<rect x="28.0296" y="349.022" width="9.00312" height="3.17757" stroke="#8BC7FF" stroke-width="1.05919"/>
<rect x="28.0296" y="352.2" width="9.00312" height="3.17757" stroke="#8BC7FF" stroke-width="1.05919"/>
<rect x="28.0296" y="355.376" width="9.00312" height="3.17757" stroke="#8BC7FF" stroke-width="1.05919"/>
<rect x="28.0296" y="358.554" width="9.00312" height="3.17757" stroke="#8BC7FF" stroke-width="1.05919"/>
<rect x="28.0296" y="361.732" width="9.00312" height="3.17757" stroke="#8BC7FF" stroke-width="1.05919"/>
<rect x="28.0296" y="364.909" width="9.00312" height="3.17757" stroke="#8BC7FF" stroke-width="1.05919"/>
<rect x="28.0296" y="368.087" width="9.00312" height="3.17757" stroke="#8BC7FF" stroke-width="1.05919"/>
<rect x="28.0296" y="371.265" width="9.00312" height="3.17757" stroke="#8BC7FF" stroke-width="1.05919"/>
<rect x="37.0325" y="307.713" width="9.00312" height="3.17757" stroke="#8BC7FF" stroke-width="1.05919"/>
<rect x="37.0325" y="310.891" width="9.00312" height="3.17757" stroke="#8BC7FF" stroke-width="1.05919"/>
<rect x="37.0325" y="314.069" width="9.00312" height="3.17757" stroke="#8BC7FF" stroke-width="1.05919"/>
<rect x="37.0325" y="317.245" width="9.00312" height="3.17757" stroke="#8BC7FF" stroke-width="1.05919"/>
<rect x="37.0325" y="320.423" width="9.00312" height="3.17757" stroke="#8BC7FF" stroke-width="1.05919"/>
<rect x="37.0325" y="323.601" width="9.00312" height="3.17757" stroke="#8BC7FF" stroke-width="1.05919"/>
<rect x="37.0325" y="326.779" width="9.00312" height="3.17757" stroke="#8BC7FF" stroke-width="1.05919"/>
<rect x="37.0325" y="352.2" width="9.00312" height="3.17757" stroke="#8BC7FF" stroke-width="1.05919"/>
<rect x="37.0325" y="355.377" width="9.00312" height="3.17757" stroke="#8BC7FF" stroke-width="1.05919"/>
<rect x="37.0325" y="358.555" width="9.00312" height="3.17757" stroke="#8BC7FF" stroke-width="1.05919"/>
<rect x="37.0325" y="361.733" width="9.00312" height="3.17757" stroke="#8BC7FF" stroke-width="1.05919"/>
<rect x="37.0325" y="364.909" width="9.00312" height="3.17757" stroke="#8BC7FF" stroke-width="1.05919"/>
<rect x="37.0325" y="368.087" width="9.00312" height="3.17757" stroke="#8BC7FF" stroke-width="1.05919"/>
<rect x="37.0325" y="371.265" width="9.00312" height="3.17757" stroke="#8BC7FF" stroke-width="1.05919"/>
<rect x="46.0355" y="296.063" width="11.6511" height="36.0125" fill="#EDF6FF"/>
<rect x="46.0355" y="296.063" width="11.6511" height="36.0125" stroke="#8BC7FF" stroke-width="1.05919"/>
<text transform="translate(47.3613 327.569) rotate(-90)" fill="#6D7073" style="white-space: pre" xml:space="preserve" font-family="Pretendard" font-size="7" letter-spacing="0em"><tspan x="0.180176" y="6.98828">S4715-2</tspan></text>
<rect x="57.6868" y="296.063" width="11.6511" height="36.0125" fill="#EDF6FF"/>
<rect x="57.6868" y="296.063" width="11.6511" height="36.0125" stroke="#8BC7FF" stroke-width="1.05919"/>
<text transform="translate(59.0127 327.069) rotate(-90)" fill="#6D7073" style="white-space: pre" xml:space="preserve" font-family="Pretendard" font-size="7" letter-spacing="0em"><tspan x="0.0869141" y="6.98828">S4715-1</tspan></text>
<rect x="69.3372" y="296.063" width="11.6511" height="36.0125" fill="#EDF6FF"/>
<rect x="69.3372" y="296.063" width="11.6511" height="36.0125" stroke="#8BC7FF" stroke-width="1.05919"/>
<text transform="translate(70.6631 327.069) rotate(-90)" fill="#6D7073" style="white-space: pre" xml:space="preserve" font-family="Pretendard" font-size="7" letter-spacing="0em"><tspan x="0.0288086" y="6.98828">S4716-1</tspan></text>
<rect x="80.9886" y="296.063" width="11.6511" height="36.0125" fill="#EDF6FF"/>
<rect x="80.9886" y="296.063" width="11.6511" height="36.0125" stroke="#8BC7FF" stroke-width="1.05919"/>
<text transform="translate(82.3145 327.569) rotate(-90)" fill="#6D7073" style="white-space: pre" xml:space="preserve" font-family="Pretendard" font-size="7" letter-spacing="0em"><tspan x="0.12207" y="6.98828">S4716-2</tspan></text>
<rect x="92.6399" y="296.063" width="22.5078" height="36.0125" fill="#EDF6FF"/>
<rect x="92.6399" y="296.063" width="22.5078" height="36.0125" stroke="#8BC7FF" stroke-width="1.05919"/>
<text fill="#6D7073" style="white-space: pre" xml:space="preserve" font-family="Pretendard" font-size="7" letter-spacing="0em"><tspan x="94.1865" y="316.558">S4717</tspan></text>
<rect x="115.148" y="296.063" width="22.5078" height="36.0125" fill="#EDF6FF"/>
<rect x="115.148" y="296.063" width="22.5078" height="36.0125" stroke="#8BC7FF" stroke-width="1.05919"/>
<text fill="#6D7073" style="white-space: pre" xml:space="preserve" font-family="Pretendard" font-size="7" letter-spacing="0em"><tspan x="116.503" y="316.558">S4718</tspan></text>
<rect x="137.656" y="296.063" width="22.5078" height="36.0125" fill="#EDF6FF"/>
<rect x="137.656" y="296.063" width="22.5078" height="36.0125" stroke="#8BC7FF" stroke-width="1.05919"/>
<text fill="#6D7073" style="white-space: pre" xml:space="preserve" font-family="Pretendard" font-size="7" letter-spacing="0em"><tspan x="138.987" y="316.558">S4719</tspan></text>
<rect x="160.163" y="296.063" width="22.5078" height="36.0125" fill="#EDF6FF"/>
<rect x="160.163" y="296.063" width="22.5078" height="36.0125" stroke="#8BC7FF" stroke-width="1.05919"/>
<text fill="#6D7073" style="white-space: pre" xml:space="preserve" font-family="Pretendard" font-size="7" letter-spacing="0em"><tspan x="161.037" y="316.558">S4720</tspan></text>
<rect x="182.671" y="296.063" width="23.3022" height="36.0125" fill="#EDF6FF"/>
<rect x="182.671" y="296.063" width="23.3022" height="36.0125" stroke="#8BC7FF" stroke-width="1.05919"/>
<rect x="186.822" y="306.569" width="15" height="15" rx="1.5" fill="#5DABFF"/>
<path d="M194.379 311.16C194.984 311.16 195.474 310.669 195.474 310.065C195.474 309.46 194.984 308.97 194.379 308.97C193.774 308.97 193.284 309.46 193.284 310.065C193.284 310.669 193.774 311.16 194.379 311.16Z" stroke="white" stroke-width="0.8025" stroke-linecap="round" stroke-linejoin="round"/>
<path d="M193.01 312.803H195.747L195.2 318.825H193.557L193.01 312.803Z" stroke="white" stroke-width="0.8025" stroke-linecap="round" stroke-linejoin="round"/>
<rect x="205.973" y="296.063" width="23.3022" height="36.0125" fill="#EDF6FF"/>
<rect x="205.973" y="296.063" width="23.3022" height="36.0125" stroke="#8BC7FF" stroke-width="1.05919"/>
<rect x="210.124" y="306.569" width="15" height="15" rx="1.5" fill="#FF8282"/>
<path d="M217.665 311.16C218.27 311.16 218.76 310.669 218.76 310.065C218.76 309.46 218.27 308.97 217.665 308.97C217.061 308.97 216.57 309.46 216.57 310.065C216.57 310.669 217.061 311.16 217.665 311.16Z" stroke="white" stroke-width="0.8025" stroke-linecap="round" stroke-linejoin="round"/>
<path d="M216.297 312.803H219.034L219.581 315.814H218.76L218.486 318.825H216.844L216.57 315.814H215.749L216.297 312.803Z" stroke="white" stroke-width="0.8025" stroke-linecap="round" stroke-linejoin="round"/>
<path d="M366.441 386.623V295.268H297.593V286H228.481V295.268H27.5V386.623H46.8302H228.481H274.556H366.441Z" stroke="#5DABFF" stroke-width="2.64797"/>
<rect x="256" y="295" width="15" height="15" rx="1.5" fill="#909499"/>
<path d="M268.75 298.75H266.125V301.375H263.5V304H260.875V306.625H258.25" stroke="white" stroke-width="0.8025" stroke-linecap="round" stroke-linejoin="round"/>
<rect x="29.5996" y="312" width="15" height="15" rx="1.5" fill="#909499"/>
<path d="M42.3496 315.75H39.7246V318.375H37.0996V321H34.4746V323.625H31.8496" stroke="white" stroke-width="0.8025" stroke-linecap="round" stroke-linejoin="round"/>
<rect x="233.5" y="318.4" width="15" height="15" rx="1.5" fill="#909499"/>
<path d="M240.938 323.739H243.563C243.873 323.739 244.169 323.861 244.388 324.08C244.607 324.299 244.73 324.596 244.73 324.905V329.984C244.73 330.293 244.607 330.59 244.388 330.809C244.169 331.027 243.873 331.15 243.563 331.15H240.938M240.938 323.739H238.313C238.004 323.739 237.707 323.861 237.488 324.08C237.269 324.299 237.146 324.596 237.146 324.905V329.984C237.146 330.293 237.269 330.59 237.488 330.809C237.707 331.027 238.004 331.15 238.313 331.15H240.938M240.938 323.739V331.15M238.094 321.577L239.042 320.65L239.99 321.577M241.886 320.65L242.834 321.577L243.782 320.65" stroke="white" stroke-width="0.8025" stroke-linecap="round" stroke-linejoin="round"/>
</svg>
