<svg width="393" height="698" viewBox="0 0 393 698" fill="none" xmlns="http://www.w3.org/2000/svg">
<rect width="393" height="698" fill="#F5F7F9"/>
<path d="M132 591L134.598 595.5H129.402L132 591Z" fill="#3B96FF"/>
<text transform="translate(119.5 599)" fill="#3B96FF" style="white-space: pre" xml:space="preserve" font-family="Pretendard" font-size="7" letter-spacing="0em"><tspan x="0.362793" y="6.98828">4&#xce35; &#xc678;&#xbd80;&#10;</tspan><tspan x="1.03955" y="15.9883">(&#xd14c;&#xb77c;&#xc2a4;)</tspan></text>
<path d="M34 193L29.5 195.598L29.5 190.402L34 193Z" fill="#3B96FF"/>
<text transform="translate(26 174.5) rotate(90)" fill="#3B96FF" style="white-space: pre" xml:space="preserve" font-family="Pretendard" font-size="7" letter-spacing="0em"><tspan x="6.36279" y="6.98828">4&#xce35; &#xc678;&#xbd80;&#10;</tspan><tspan x="0.111328" y="15.9883">(&#xbbf8;&#xb798;&#xad00; &#xbc29;&#xd5a5;)</tspan></text>
<path d="M360 193L364.5 190.402L364.5 195.598L360 193Z" fill="#3B96FF"/>
<text transform="translate(368 211.5) rotate(-90)" fill="#3B96FF" style="white-space: pre" xml:space="preserve" font-family="Pretendard" font-size="7" letter-spacing="0em"><tspan x="6.36279" y="6.98828">4&#xce35; &#xc678;&#xbd80;&#10;</tspan><tspan x="0.111328" y="15.9883">(&#xc6b4;&#xb3d9;&#xc7a5; &#xbc29;&#xd5a5;)</tspan></text>
<rect x="38.1387" y="112" width="318.861" height="474.875" fill="white"/>
<rect x="304.046" y="213.922" width="52.3843" height="37.5801" fill="#EDF6FF"/>
<rect x="304.046" y="213.922" width="52.3843" height="37.5801" stroke="#8BC7FF" stroke-width="1.13879"/>
<text fill="#6D7073" style="white-space: pre" xml:space="preserve" font-family="Pretendard" font-size="8" letter-spacing="0em"><tspan x="317.008" y="235.555">S10419</tspan></text>
<rect x="304.046" y="251.502" width="52.3843" height="37.5801" fill="#EDF6FF"/>
<rect x="304.046" y="251.502" width="52.3843" height="37.5801" stroke="#8BC7FF" stroke-width="1.13879"/>
<text fill="#6D7073" style="white-space: pre" xml:space="preserve" font-family="Pretendard" font-size="8" letter-spacing="0em"><tspan x="316.445" y="273.135">S10420</tspan></text>
<rect x="304.046" y="289.082" width="52.3843" height="36.4413" fill="#EDF6FF"/>
<rect x="304.046" y="289.082" width="52.3843" height="36.4413" stroke="#8BC7FF" stroke-width="1.13879"/>
<text fill="#6D7073" style="white-space: pre" xml:space="preserve" font-family="Pretendard" font-size="8" letter-spacing="0em"><tspan x="317.074" y="310.146">S10421</tspan></text>
<rect x="304.046" y="325.523" width="52.3843" height="37.5801" fill="#EDF6FF"/>
<rect x="304.046" y="325.523" width="52.3843" height="37.5801" stroke="#8BC7FF" stroke-width="1.13879"/>
<text fill="#6D7073" style="white-space: pre" xml:space="preserve" font-family="Pretendard" font-size="8" letter-spacing="0em"><tspan x="316.48" y="347.157">S10422</tspan></text>
<rect x="304.046" y="363.103" width="52.3843" height="37.5801" fill="#EDF6FF"/>
<rect x="304.046" y="363.103" width="52.3843" height="37.5801" stroke="#8BC7FF" stroke-width="1.13879"/>
<text fill="#6D7073" style="white-space: pre" xml:space="preserve" font-family="Pretendard" font-size="8" letter-spacing="0em"><tspan x="316.359" y="384.737">S10423</tspan></text>
<rect x="304.046" y="400.683" width="52.3843" height="37.5801" fill="#EDF6FF"/>
<rect x="304.046" y="400.683" width="52.3843" height="37.5801" stroke="#8BC7FF" stroke-width="1.13879"/>
<text fill="#6D7073" style="white-space: pre" xml:space="preserve" font-family="Pretendard" font-size="8" letter-spacing="0em"><tspan x="316.391" y="422.317">S10424</tspan></text>
<rect x="304.046" y="438.263" width="52.3843" height="37.5801" fill="#EDF6FF"/>
<rect x="304.046" y="438.263" width="52.3843" height="37.5801" stroke="#8BC7FF" stroke-width="1.13879"/>
<text fill="#6D7073" style="white-space: pre" xml:space="preserve" font-family="Pretendard" font-size="8" letter-spacing="0em"><tspan x="316.441" y="459.897">S10425</tspan></text>
<rect x="304.046" y="475.843" width="52.3843" height="36.4413" fill="#EDF6FF"/>
<rect x="304.046" y="475.843" width="52.3843" height="36.4413" stroke="#8BC7FF" stroke-width="1.13879"/>
<text fill="#6D7073" style="white-space: pre" xml:space="preserve" font-family="Pretendard" font-size="8" letter-spacing="0em"><tspan x="316.375" y="496.908">S10426</tspan></text>
<rect x="304.046" y="512.285" width="52.3843" height="37.5801" fill="#EDF6FF"/>
<rect x="304.046" y="512.285" width="52.3843" height="37.5801" stroke="#8BC7FF" stroke-width="1.13879"/>
<text fill="#6D7073" style="white-space: pre" xml:space="preserve" font-family="Pretendard" font-size="8" letter-spacing="0em"><tspan x="316.621" y="533.918">S10427</tspan></text>
<rect x="304.046" y="549.865" width="52.3843" height="37.5801" fill="#EDF6FF"/>
<rect x="304.046" y="549.865" width="52.3843" height="37.5801" stroke="#8BC7FF" stroke-width="1.13879"/>
<text fill="#6D7073" style="white-space: pre" xml:space="preserve" font-family="Pretendard" font-size="8" letter-spacing="0em"><tspan x="316.402" y="571.499">S10428</tspan></text>
<rect x="38.7081" y="287.943" width="79.7153" height="37.5801" fill="#EDF6FF"/>
<rect x="38.7081" y="287.943" width="79.7153" height="37.5801" stroke="#8BC7FF" stroke-width="1.13879"/>
<text fill="#6D7073" style="white-space: pre" xml:space="preserve" font-family="Pretendard" font-size="8" letter-spacing="0em"><tspan x="65.4055" y="309.577">S10410</tspan></text>
<rect x="38.7081" y="325.523" width="79.7153" height="36.4413" fill="#EDF6FF"/>
<rect x="38.7081" y="325.523" width="79.7153" height="36.4413" stroke="#8BC7FF" stroke-width="1.13879"/>
<text fill="#6D7073" style="white-space: pre" xml:space="preserve" font-family="Pretendard" font-size="8" letter-spacing="0em"><tspan x="66.0344" y="346.587">S10411</tspan></text>
<rect x="38.7081" y="361.964" width="79.7153" height="37.5801" fill="#EDF6FF"/>
<rect x="38.7081" y="361.964" width="79.7153" height="37.5801" stroke="#8BC7FF" stroke-width="1.13879"/>
<text fill="#6D7073" style="white-space: pre" xml:space="preserve" font-family="Pretendard" font-size="8" letter-spacing="0em"><tspan x="65.4407" y="383.598">S10412</tspan></text>
<rect x="38.7081" y="399.544" width="79.7153" height="37.5801" fill="#EDF6FF"/>
<rect x="38.7081" y="399.544" width="79.7153" height="37.5801" stroke="#8BC7FF" stroke-width="1.13879"/>
<text fill="#6D7073" style="white-space: pre" xml:space="preserve" font-family="Pretendard" font-size="8" letter-spacing="0em"><tspan x="65.3196" y="421.178">S10413</tspan></text>
<rect x="38.7081" y="437.124" width="79.7153" height="36.4413" fill="#EDF6FF"/>
<rect x="38.7081" y="437.124" width="79.7153" height="36.4413" stroke="#8BC7FF" stroke-width="1.13879"/>
<text fill="#6D7073" style="white-space: pre" xml:space="preserve" font-family="Pretendard" font-size="8" letter-spacing="0em"><tspan x="65.2922" y="458.189">S10414</tspan></text>
<rect x="38.7081" y="473.566" width="53.5231" height="29.6085" fill="#EDF6FF"/>
<rect x="38.7081" y="473.566" width="53.5231" height="29.6085" stroke="#8BC7FF" stroke-width="1.13879"/>
<rect x="57.9697" y="480.87" width="15" height="15" rx="1.5" fill="#909499"/>
<path d="M65.4074 486.208H68.0324C68.3418 486.208 68.6386 486.331 68.8573 486.55C69.0761 486.769 69.1991 487.066 69.1991 487.375V492.453C69.1991 492.763 69.0761 493.06 68.8573 493.278C68.6386 493.497 68.3418 493.62 68.0324 493.62H65.4074M65.4074 486.208H62.7824C62.473 486.208 62.1762 486.331 61.9574 486.55C61.7386 486.769 61.6157 487.066 61.6157 487.375V492.453C61.6157 492.763 61.7386 493.06 61.9574 493.278C62.1762 493.497 62.473 493.62 62.7824 493.62H65.4074M65.4074 486.208V493.62M62.5636 484.046L63.5116 483.12L64.4595 484.046M66.3553 483.12L67.3032 484.046L68.2511 483.12" stroke="white" stroke-width="0.8025" stroke-linecap="round" stroke-linejoin="round"/>
<rect x="228.886" y="213.922" width="52.3843" height="43.274" fill="#EDF6FF"/>
<rect x="228.886" y="213.922" width="52.3843" height="43.274" stroke="#8BC7FF" stroke-width="1.13879"/>
<text fill="#6D7073" style="white-space: pre" xml:space="preserve" font-family="Pretendard" font-size="8" letter-spacing="0em"><tspan x="241.914" y="235.402">S10415</tspan></text>
<rect x="38.7081" y="112.569" width="38.8612" height="60.3559" fill="#EDF6FF"/>
<rect x="38.7081" y="112.569" width="38.8612" height="60.3559" stroke="#8BC7FF" stroke-width="1.13879"/>
<text fill="#6D7073" style="white-space: pre" xml:space="preserve" font-family="Pretendard" font-size="7" letter-spacing="0em"><tspan x="46.5894" y="145.236">S10401</tspan></text>
<rect x="77.5694" y="112.569" width="34.2857" height="60.3559" fill="#EDF6FF"/>
<rect x="77.5694" y="112.569" width="34.2857" height="60.3559" stroke="#8BC7FF" stroke-width="1.13879"/>
<text fill="#6D7073" style="white-space: pre" xml:space="preserve" font-family="Pretendard" font-size="7" letter-spacing="0em"><tspan x="82.6433" y="145.236">S10402</tspan></text>
<rect x="111.855" y="112.569" width="34.2857" height="60.3559" fill="#EDF6FF"/>
<rect x="111.855" y="112.569" width="34.2857" height="60.3559" stroke="#8BC7FF" stroke-width="1.13879"/>
<text fill="#6D7073" style="white-space: pre" xml:space="preserve" font-family="Pretendard" font-size="7" letter-spacing="0em"><tspan x="116.823" y="145.236">S10403</tspan></text>
<rect x="146.141" y="112.569" width="34.2857" height="60.3559" fill="#EDF6FF"/>
<rect x="146.141" y="112.569" width="34.2857" height="60.3559" stroke="#8BC7FF" stroke-width="1.13879"/>
<text fill="#6D7073" style="white-space: pre" xml:space="preserve" font-family="Pretendard" font-size="7" letter-spacing="0em"><tspan x="151.085" y="145.236">S10404</tspan></text>
<rect x="180.426" y="112.569" width="34.2857" height="60.3559" fill="#EDF6FF"/>
<rect x="180.426" y="112.569" width="34.2857" height="60.3559" stroke="#8BC7FF" stroke-width="1.13879"/>
<text fill="#6D7073" style="white-space: pre" xml:space="preserve" font-family="Pretendard" font-size="7" letter-spacing="0em"><tspan x="185.466" y="145.236">S10405</tspan></text>
<rect x="214.712" y="112.569" width="34.2857" height="60.3559" fill="#EDF6FF"/>
<rect x="214.712" y="112.569" width="34.2857" height="60.3559" stroke="#8BC7FF" stroke-width="1.13879"/>
<text fill="#6D7073" style="white-space: pre" xml:space="preserve" font-family="Pretendard" font-size="7" letter-spacing="0em"><tspan x="219.694" y="145.236">S10406</tspan></text>
<rect x="248.998" y="112.569" width="34.2857" height="60.3559" fill="#EDF6FF"/>
<rect x="248.998" y="112.569" width="34.2857" height="60.3559" stroke="#8BC7FF" stroke-width="1.13879"/>
<text fill="#6D7073" style="white-space: pre" xml:space="preserve" font-family="Pretendard" font-size="7" letter-spacing="0em"><tspan x="254.263" y="145.236">S10407</tspan></text>
<rect x="283.284" y="112.569" width="34.2857" height="60.3559" fill="#EDF6FF"/>
<rect x="283.284" y="112.569" width="34.2857" height="60.3559" stroke="#8BC7FF" stroke-width="1.13879"/>
<text fill="#6D7073" style="white-space: pre" xml:space="preserve" font-family="Pretendard" font-size="7" letter-spacing="0em"><tspan x="288.289" y="145.236">S10408</tspan></text>
<rect x="317.569" y="112.569" width="38.8612" height="60.3559" fill="#EDF6FF"/>
<rect x="317.569" y="112.569" width="38.8612" height="60.3559" stroke="#8BC7FF" stroke-width="1.13879"/>
<text fill="#6D7073" style="white-space: pre" xml:space="preserve" font-family="Pretendard" font-size="7" letter-spacing="0em"><tspan x="324.839" y="145.236">S10409</tspan></text>
<rect x="146.324" y="537.338" width="33.5943" height="48.968" fill="#EDF6FF"/>
<rect x="146.324" y="537.338" width="33.5943" height="48.968" stroke="#8BC7FF" stroke-width="1.13879"/>
<text fill="#6D7073" style="white-space: pre" xml:space="preserve" font-family="Pretendard" font-size="8" letter-spacing="0em"><tspan x="149.242" y="564.666">S10432</tspan></text>
<rect x="179.918" y="537.338" width="33.5943" height="48.968" fill="#EDF6FF"/>
<rect x="179.918" y="537.338" width="33.5943" height="48.968" stroke="#8BC7FF" stroke-width="1.13879"/>
<text fill="#6D7073" style="white-space: pre" xml:space="preserve" font-family="Pretendard" font-size="8" letter-spacing="0em"><tspan x="183.43" y="564.666">S10431</tspan></text>
<rect x="213.513" y="537.338" width="33.5943" height="48.968" fill="#EDF6FF"/>
<rect x="213.513" y="537.338" width="33.5943" height="48.968" stroke="#8BC7FF" stroke-width="1.13879"/>
<text fill="#6D7073" style="white-space: pre" xml:space="preserve" font-family="Pretendard" font-size="8" letter-spacing="0em"><tspan x="216.396" y="564.666">S10430</tspan></text>
<rect x="247.107" y="537.338" width="33.5943" height="48.968" fill="#EDF6FF"/>
<rect x="247.107" y="537.338" width="33.5943" height="48.968" stroke="#8BC7FF" stroke-width="1.13879"/>
<text fill="#6D7073" style="white-space: pre" xml:space="preserve" font-family="Pretendard" font-size="8" letter-spacing="0em"><tspan x="250.041" y="564.666">S10429</tspan></text>
<rect x="228.886" y="251.502" width="52.3843" height="50.1068" fill="#EDF6FF"/>
<rect x="228.886" y="251.502" width="52.3843" height="50.1068" stroke="#8BC7FF" stroke-width="1.13879"/>
<text fill="#6D7073" style="white-space: pre" xml:space="preserve" font-family="Pretendard" font-size="8" letter-spacing="0em"><tspan x="241.848" y="279.399">S10416</tspan></text>
<rect x="228.886" y="301.608" width="52.3843" height="50.1068" fill="#EDF6FF"/>
<rect x="228.886" y="301.608" width="52.3843" height="50.1068" stroke="#8BC7FF" stroke-width="1.13879"/>
<text fill="#6D7073" style="white-space: pre" xml:space="preserve" font-family="Pretendard" font-size="8" letter-spacing="0em"><tspan x="242.094" y="329.506">S10417</tspan></text>
<rect x="228.886" y="351.715" width="52.3843" height="50.1068" fill="#EDF6FF"/>
<rect x="228.886" y="351.715" width="52.3843" height="50.1068" stroke="#8BC7FF" stroke-width="1.13879"/>
<text fill="#6D7073" style="white-space: pre" xml:space="preserve" font-family="Pretendard" font-size="8" letter-spacing="0em"><tspan x="241.875" y="379.613">S10418</tspan></text>
<rect x="146.893" y="428.014" width="134.377" height="77.4377" fill="#EDF6FF"/>
<rect x="146.893" y="428.014" width="134.377" height="77.4377" stroke="#8BC7FF" stroke-width="1.13879"/>
<text fill="#6D7073" style="white-space: pre" xml:space="preserve" font-family="Pretendard" font-size="8" letter-spacing="0em"><tspan x="188.879" y="469.577">&#xacbd;&#xc601;&#xb300;&#xd559; &#xad50;&#xd559;&#xd300;</tspan></text>
<rect x="146.893" y="251.502" width="40.9964" height="3.41637" stroke="#8BC7FF" stroke-width="1.13879"/>
<rect x="146.893" y="254.918" width="40.9964" height="3.41637" stroke="#8BC7FF" stroke-width="1.13879"/>
<rect x="146.893" y="258.335" width="40.9964" height="3.41637" stroke="#8BC7FF" stroke-width="1.13879"/>
<rect x="146.893" y="261.751" width="40.9964" height="3.41637" stroke="#8BC7FF" stroke-width="1.13879"/>
<rect x="146.893" y="265.167" width="40.9964" height="3.41637" stroke="#8BC7FF" stroke-width="1.13879"/>
<rect x="146.893" y="268.584" width="40.9964" height="3.41637" stroke="#8BC7FF" stroke-width="1.13879"/>
<rect x="146.893" y="272" width="40.9964" height="3.41637" stroke="#8BC7FF" stroke-width="1.13879"/>
<rect x="146.893" y="275.416" width="40.9964" height="3.41637" stroke="#8BC7FF" stroke-width="1.13879"/>
<rect x="146.893" y="278.833" width="40.9964" height="3.41637" stroke="#8BC7FF" stroke-width="1.13879"/>
<mask id="path-86-inside-1_7225_49869" fill="white">
<path d="M146.324 281.68H188.459V311.858H146.324V281.68Z"/>
</mask>
<path d="M146.324 281.68V280.541H145.185V281.68H146.324ZM146.324 311.858H145.185V312.996H146.324V311.858ZM146.324 281.68V282.818H188.459V281.68V280.541H146.324V281.68ZM188.459 311.858V310.719H146.324V311.858V312.996H188.459V311.858ZM146.324 311.858H147.463V281.68H146.324H145.185V311.858H146.324Z" fill="#8BC7FF" mask="url(#path-86-inside-1_7225_49869)"/>
<rect x="146.893" y="311.288" width="40.9964" height="3.41637" stroke="#8BC7FF" stroke-width="1.13879"/>
<rect x="146.893" y="314.705" width="40.9964" height="3.41637" stroke="#8BC7FF" stroke-width="1.13879"/>
<rect x="146.893" y="318.121" width="40.9964" height="3.41637" stroke="#8BC7FF" stroke-width="1.13879"/>
<rect x="146.893" y="321.537" width="40.9964" height="3.41637" stroke="#8BC7FF" stroke-width="1.13879"/>
<rect x="146.893" y="324.954" width="40.9964" height="3.41637" stroke="#8BC7FF" stroke-width="1.13879"/>
<rect x="146.893" y="328.37" width="40.9964" height="3.41637" stroke="#8BC7FF" stroke-width="1.13879"/>
<rect x="146.893" y="331.786" width="40.9964" height="3.41637" stroke="#8BC7FF" stroke-width="1.13879"/>
<rect x="146.893" y="335.203" width="40.9964" height="3.41637" stroke="#8BC7FF" stroke-width="1.13879"/>
<rect x="146.893" y="338.619" width="40.9964" height="3.41637" stroke="#8BC7FF" stroke-width="1.13879"/>
<mask id="path-97-inside-2_7225_49869" fill="white">
<path d="M146.324 341.466H188.459V371.644H146.324V341.466Z"/>
</mask>
<path d="M146.324 341.466V340.328H145.185V341.466H146.324ZM146.324 371.644H145.185V372.783H146.324V371.644ZM146.324 341.466V342.605H188.459V341.466V340.328H146.324V341.466ZM188.459 371.644V370.505H146.324V371.644V372.783H188.459V371.644ZM146.324 371.644H147.463V341.466H146.324H145.185V371.644H146.324Z" fill="#8BC7FF" mask="url(#path-97-inside-2_7225_49869)"/>
<rect x="146.893" y="371.075" width="40.9964" height="3.41637" stroke="#8BC7FF" stroke-width="1.13879"/>
<rect x="146.893" y="374.491" width="40.9964" height="3.41637" stroke="#8BC7FF" stroke-width="1.13879"/>
<rect x="146.893" y="377.908" width="40.9964" height="3.41637" stroke="#8BC7FF" stroke-width="1.13879"/>
<rect x="146.893" y="381.324" width="40.9964" height="3.41637" stroke="#8BC7FF" stroke-width="1.13879"/>
<rect x="146.893" y="384.74" width="40.9964" height="3.41637" stroke="#8BC7FF" stroke-width="1.13879"/>
<rect x="146.893" y="388.157" width="40.9964" height="3.41637" stroke="#8BC7FF" stroke-width="1.13879"/>
<rect x="146.893" y="391.573" width="40.9964" height="3.41637" stroke="#8BC7FF" stroke-width="1.13879"/>
<rect x="146.893" y="394.989" width="40.9964" height="3.41637" stroke="#8BC7FF" stroke-width="1.13879"/>
<rect x="146.893" y="398.406" width="40.9964" height="3.41637" stroke="#8BC7FF" stroke-width="1.13879"/>
<mask id="path-108-inside-3_7225_49869" fill="white">
<path d="M187.32 250.932H229.455V282.818H187.32V250.932Z"/>
</mask>
<path d="M187.32 250.932H229.455V282.818H187.32V250.932Z" fill="#8BC7FF" fill-opacity="0.5"/>
<path d="M229.455 250.932H230.594V249.794H229.455V250.932ZM229.455 282.818V283.957H230.594V282.818H229.455ZM187.32 250.932V252.071H229.455V250.932V249.794H187.32V250.932ZM229.455 250.932H228.317V282.818H229.455H230.594V250.932H229.455ZM229.455 282.818V281.68H187.32V282.818V283.957H229.455V282.818Z" fill="#8BC7FF" mask="url(#path-108-inside-3_7225_49869)"/>
<mask id="path-110-inside-4_7225_49869" fill="white">
<path d="M187.32 281.68H229.455V311.858H187.32V281.68Z"/>
</mask>
<path d="M187.32 281.68H229.455V311.858H187.32V281.68Z" fill="#8BC7FF" fill-opacity="0.5"/>
<path d="M229.455 281.68H230.594V280.541H229.455V281.68ZM229.455 311.858V312.996H230.594V311.858H229.455ZM187.32 281.68V282.818H229.455V281.68V280.541H187.32V281.68ZM229.455 281.68H228.317V311.858H229.455H230.594V281.68H229.455ZM229.455 311.858V310.719H187.32V311.858V312.996H229.455V311.858Z" fill="#8BC7FF" mask="url(#path-110-inside-4_7225_49869)"/>
<mask id="path-112-inside-5_7225_49869" fill="white">
<path d="M187.32 310.719H229.455V342.605H187.32V310.719Z"/>
</mask>
<path d="M187.32 310.719H229.455V342.605H187.32V310.719Z" fill="#8BC7FF" fill-opacity="0.5"/>
<path d="M229.455 310.719H230.594V309.58H229.455V310.719ZM229.455 342.605V343.744H230.594V342.605H229.455ZM187.32 310.719V311.858H229.455V310.719V309.58H187.32V310.719ZM229.455 310.719H228.317V342.605H229.455H230.594V310.719H229.455ZM229.455 342.605V341.466H187.32V342.605V343.744H229.455V342.605Z" fill="#8BC7FF" mask="url(#path-112-inside-5_7225_49869)"/>
<mask id="path-114-inside-6_7225_49869" fill="white">
<path d="M187.32 341.466H229.455V371.644H187.32V341.466Z"/>
</mask>
<path d="M187.32 341.466H229.455V371.644H187.32V341.466Z" fill="#8BC7FF" fill-opacity="0.5"/>
<path d="M229.455 341.466H230.594V340.328H229.455V341.466ZM229.455 371.644V372.783H230.594V371.644H229.455ZM187.32 341.466V342.605H229.455V341.466V340.328H187.32V341.466ZM229.455 341.466H228.317V371.644H229.455H230.594V341.466H229.455ZM229.455 371.644V370.505H187.32V371.644V372.783H229.455V371.644Z" fill="#8BC7FF" mask="url(#path-114-inside-6_7225_49869)"/>
<mask id="path-116-inside-7_7225_49869" fill="white">
<path d="M187.32 370.505H229.455V402.391H187.32V370.505Z"/>
</mask>
<path d="M187.32 370.505H229.455V402.391H187.32V370.505Z" fill="#8BC7FF" fill-opacity="0.5"/>
<path d="M229.455 370.505H230.594V369.367H229.455V370.505ZM229.455 402.391V403.53H230.594V402.391H229.455ZM187.32 370.505V371.644H229.455V370.505V369.367H187.32V370.505ZM229.455 370.505H228.317V402.391H229.455H230.594V370.505H229.455ZM229.455 402.391V401.253H187.32V402.391V403.53H229.455V402.391Z" fill="#8BC7FF" mask="url(#path-116-inside-7_7225_49869)"/>
<rect x="37.5694" y="208.228" width="40.427" height="37.5801" fill="#EDF6FF"/>
<rect x="37.5694" y="208.228" width="40.427" height="37.5801" stroke="#8BC7FF" stroke-width="1.13879"/>
<rect x="50.283" y="219.518" width="15" height="15" rx="1.5" fill="#5DABFF"/>
<path d="M57.8401 224.108C58.4448 224.108 58.935 223.617 58.935 223.013C58.935 222.408 58.4448 221.918 57.8401 221.918C57.2353 221.918 56.7451 222.408 56.7451 223.013C56.7451 223.617 57.2353 224.108 57.8401 224.108Z" stroke="white" stroke-width="0.8025" stroke-linecap="round" stroke-linejoin="round"/>
<path d="M56.4705 225.75H59.2079L58.6604 231.773H57.0179L56.4705 225.75Z" stroke="white" stroke-width="0.8025" stroke-linecap="round" stroke-linejoin="round"/>
<rect x="77.9964" y="208.228" width="40.427" height="37.5801" fill="#EDF6FF"/>
<rect x="77.9964" y="208.228" width="40.427" height="37.5801" stroke="#8BC7FF" stroke-width="1.13879"/>
<rect x="90.71" y="219.518" width="15" height="15" rx="1.5" fill="#FF8282"/>
<path d="M98.251 224.108C98.8557 224.108 99.3459 223.617 99.3459 223.013C99.3459 222.408 98.8557 221.918 98.251 221.918C97.6462 221.918 97.156 222.408 97.156 223.013C97.156 223.617 97.6462 224.108 98.251 224.108Z" stroke="white" stroke-width="0.8025" stroke-linecap="round" stroke-linejoin="round"/>
<path d="M96.8824 225.75H99.6198L100.167 228.762H99.3461L99.0724 231.773H97.4299L97.1562 228.762H96.335L96.8824 225.75Z" stroke="white" stroke-width="0.8025" stroke-linecap="round" stroke-linejoin="round"/>
<rect x="76.2883" y="251.502" width="15.3737" height="3.41637" transform="rotate(90 76.2883 251.502)" stroke="#8BC7FF" stroke-width="1.13879"/>
<rect x="72.8718" y="251.502" width="15.3737" height="3.41637" transform="rotate(90 72.8718 251.502)" stroke="#8BC7FF" stroke-width="1.13879"/>
<rect x="69.4555" y="251.502" width="15.3737" height="3.41637" transform="rotate(90 69.4555 251.502)" stroke="#8BC7FF" stroke-width="1.13879"/>
<rect x="66.0392" y="251.502" width="15.3737" height="3.41637" transform="rotate(90 66.0392 251.502)" stroke="#8BC7FF" stroke-width="1.13879"/>
<rect x="62.6227" y="251.502" width="15.3737" height="3.41637" transform="rotate(90 62.6227 251.502)" stroke="#8BC7FF" stroke-width="1.13879"/>
<rect x="59.2065" y="251.502" width="15.3737" height="3.41637" transform="rotate(90 59.2065 251.502)" stroke="#8BC7FF" stroke-width="1.13879"/>
<rect x="55.79" y="251.502" width="15.3737" height="3.41637" transform="rotate(90 55.79 251.502)" stroke="#8BC7FF" stroke-width="1.13879"/>
<rect x="52.3737" y="251.502" width="15.3737" height="3.41637" transform="rotate(90 52.3737 251.502)" stroke="#8BC7FF" stroke-width="1.13879"/>
<rect x="48.9572" y="251.502" width="15.3737" height="3.41637" transform="rotate(90 48.9572 251.502)" stroke="#8BC7FF" stroke-width="1.13879"/>
<rect x="45.541" y="251.502" width="15.3737" height="3.41637" transform="rotate(90 45.541 251.502)" stroke="#8BC7FF" stroke-width="1.13879"/>
<rect x="42.1245" y="251.502" width="15.3737" height="3.41637" transform="rotate(90 42.1245 251.502)" stroke="#8BC7FF" stroke-width="1.13879"/>
<rect x="76.2883" y="266.876" width="15.3737" height="3.41637" transform="rotate(90 76.2883 266.876)" stroke="#8BC7FF" stroke-width="1.13879"/>
<rect x="72.8718" y="266.876" width="15.3737" height="3.41637" transform="rotate(90 72.8718 266.876)" stroke="#8BC7FF" stroke-width="1.13879"/>
<rect x="69.4555" y="266.876" width="15.3737" height="3.41637" transform="rotate(90 69.4555 266.876)" stroke="#8BC7FF" stroke-width="1.13879"/>
<rect x="66.0392" y="266.876" width="15.3737" height="3.41637" transform="rotate(90 66.0392 266.876)" stroke="#8BC7FF" stroke-width="1.13879"/>
<rect x="62.6227" y="266.876" width="15.3737" height="3.41637" transform="rotate(90 62.6227 266.876)" stroke="#8BC7FF" stroke-width="1.13879"/>
<rect x="59.2065" y="266.876" width="15.3737" height="3.41637" transform="rotate(90 59.2065 266.876)" stroke="#8BC7FF" stroke-width="1.13879"/>
<rect x="55.79" y="266.876" width="15.3737" height="3.41637" transform="rotate(90 55.79 266.876)" stroke="#8BC7FF" stroke-width="1.13879"/>
<rect x="52.3737" y="266.876" width="15.3737" height="3.41637" transform="rotate(90 52.3737 266.876)" stroke="#8BC7FF" stroke-width="1.13879"/>
<rect x="48.9572" y="266.876" width="15.3737" height="3.41637" transform="rotate(90 48.9572 266.876)" stroke="#8BC7FF" stroke-width="1.13879"/>
<rect x="45.541" y="266.876" width="15.3737" height="3.41637" transform="rotate(90 45.541 266.876)" stroke="#8BC7FF" stroke-width="1.13879"/>
<rect x="42.1245" y="266.876" width="15.3737" height="3.41637" transform="rotate(90 42.1245 266.876)" stroke="#8BC7FF" stroke-width="1.13879"/>
<rect x="76.4308" y="546.569" width="15.3737" height="3.41637" transform="rotate(90 76.4308 546.569)" stroke="#8BC7FF" stroke-width="1.13879"/>
<rect x="73.0143" y="546.569" width="15.3737" height="3.41637" transform="rotate(90 73.0143 546.569)" stroke="#8BC7FF" stroke-width="1.13879"/>
<rect x="69.5981" y="546.569" width="15.3737" height="3.41637" transform="rotate(90 69.5981 546.569)" stroke="#8BC7FF" stroke-width="1.13879"/>
<rect x="66.1818" y="546.569" width="15.3737" height="3.41637" transform="rotate(90 66.1818 546.569)" stroke="#8BC7FF" stroke-width="1.13879"/>
<rect x="62.7653" y="546.569" width="15.3737" height="3.41637" transform="rotate(90 62.7653 546.569)" stroke="#8BC7FF" stroke-width="1.13879"/>
<rect x="59.3491" y="546.569" width="15.3737" height="3.41637" transform="rotate(90 59.3491 546.569)" stroke="#8BC7FF" stroke-width="1.13879"/>
<rect x="55.9326" y="546.569" width="15.3737" height="3.41637" transform="rotate(90 55.9326 546.569)" stroke="#8BC7FF" stroke-width="1.13879"/>
<rect x="52.5163" y="546.569" width="15.3737" height="3.41637" transform="rotate(90 52.5163 546.569)" stroke="#8BC7FF" stroke-width="1.13879"/>
<rect x="49.0998" y="546.569" width="15.3737" height="3.41637" transform="rotate(90 49.0998 546.569)" stroke="#8BC7FF" stroke-width="1.13879"/>
<rect x="45.6835" y="546.569" width="15.3737" height="3.41637" transform="rotate(90 45.6835 546.569)" stroke="#8BC7FF" stroke-width="1.13879"/>
<rect x="42.267" y="546.569" width="15.3737" height="3.41637" transform="rotate(90 42.267 546.569)" stroke="#8BC7FF" stroke-width="1.13879"/>
<rect x="76.4308" y="561.943" width="15.3737" height="3.41637" transform="rotate(90 76.4308 561.943)" stroke="#8BC7FF" stroke-width="1.13879"/>
<rect x="73.0143" y="561.943" width="15.3737" height="3.41637" transform="rotate(90 73.0143 561.943)" stroke="#8BC7FF" stroke-width="1.13879"/>
<rect x="69.5981" y="561.943" width="15.3737" height="3.41637" transform="rotate(90 69.5981 561.943)" stroke="#8BC7FF" stroke-width="1.13879"/>
<rect x="66.1818" y="561.943" width="15.3737" height="3.41637" transform="rotate(90 66.1818 561.943)" stroke="#8BC7FF" stroke-width="1.13879"/>
<rect x="62.7653" y="561.943" width="15.3737" height="3.41637" transform="rotate(90 62.7653 561.943)" stroke="#8BC7FF" stroke-width="1.13879"/>
<rect x="59.3491" y="561.943" width="15.3737" height="3.41637" transform="rotate(90 59.3491 561.943)" stroke="#8BC7FF" stroke-width="1.13879"/>
<rect x="55.9326" y="561.943" width="15.3737" height="3.41637" transform="rotate(90 55.9326 561.943)" stroke="#8BC7FF" stroke-width="1.13879"/>
<rect x="52.5163" y="561.943" width="15.3737" height="3.41637" transform="rotate(90 52.5163 561.943)" stroke="#8BC7FF" stroke-width="1.13879"/>
<rect x="49.0998" y="561.943" width="15.3737" height="3.41637" transform="rotate(90 49.0998 561.943)" stroke="#8BC7FF" stroke-width="1.13879"/>
<rect x="45.6835" y="561.943" width="15.3737" height="3.41637" transform="rotate(90 45.6835 561.943)" stroke="#8BC7FF" stroke-width="1.13879"/>
<rect x="42.267" y="561.943" width="15.3737" height="3.41637" transform="rotate(90 42.267 561.943)" stroke="#8BC7FF" stroke-width="1.13879"/>
<path d="M38.1387 173.188V112H357V173.188M38.1387 207.773V586.875H118.993M357 213.094V586.875H145.754" stroke="#5DABFF" stroke-width="2.84698"/>
<rect x="50" y="260" width="15" height="15" rx="1.5" fill="#909499"/>
<path d="M62.75 263.75H60.125V266.375H57.5V269H54.875V271.625H52.25" stroke="white" stroke-width="0.8025" stroke-linecap="round" stroke-linejoin="round"/>
<rect x="160" y="318" width="15" height="15" rx="1.5" fill="#909499"/>
<path d="M172.75 321.75H170.125V324.375H167.5V327H164.875V329.625H162.25" stroke="white" stroke-width="0.8025" stroke-linecap="round" stroke-linejoin="round"/>
<rect x="50" y="554" width="15" height="15" rx="1.5" fill="#909499"/>
<path d="M62.75 557.75H60.125V560.375H57.5V563H54.875V565.625H52.25" stroke="white" stroke-width="0.8025" stroke-linecap="round" stroke-linejoin="round"/>
<rect x="201" y="318" width="15" height="15" rx="1.5" fill="#EDAE26"/>
<path fill-rule="evenodd" clip-rule="evenodd" d="M209.973 320.812C211.833 320.812 213.375 322.253 213.375 324.072V324.385H213.577C213.752 324.385 213.925 324.417 214.088 324.481C214.25 324.546 214.4 324.64 214.526 324.76C214.652 324.881 214.753 325.025 214.823 325.185C214.893 325.344 214.929 325.517 214.929 325.691L214.926 325.783C214.912 325.966 214.859 326.144 214.771 326.305L214.724 326.384L214.44 326.823C214.268 327.088 214.178 327.391 214.178 327.699V328.894C214.178 329.244 214.032 329.575 213.779 329.817C213.527 330.057 213.188 330.189 212.839 330.189C212.49 330.189 212.152 330.057 211.9 329.817C211.795 329.717 211.709 329.601 211.644 329.475H205.356C205.291 329.601 205.206 329.717 205.101 329.817C204.848 330.057 204.51 330.189 204.161 330.189C203.812 330.189 203.473 330.057 203.221 329.817C202.968 329.575 202.822 329.244 202.822 328.894V327.699C202.822 327.43 202.753 327.164 202.621 326.924L202.561 326.823L202.277 326.384C202.143 326.177 202.072 325.937 202.072 325.691C202.072 325.338 202.219 325.004 202.474 324.76C202.729 324.518 203.071 324.385 203.423 324.385H203.679V324.072C203.679 322.254 205.22 320.813 207.08 320.812H209.973ZM203.423 325.188C203.272 325.188 203.13 325.246 203.029 325.343C202.928 325.439 202.875 325.565 202.875 325.691C202.875 325.78 202.901 325.869 202.952 325.948L203.236 326.387C203.49 326.78 203.625 327.235 203.625 327.699V328.894C203.625 329.018 203.677 329.141 203.775 329.235C203.874 329.329 204.013 329.385 204.161 329.385C204.309 329.385 204.448 329.329 204.547 329.235C204.645 329.141 204.697 329.018 204.697 328.894V326.037C204.697 325.818 204.606 325.604 204.437 325.443C204.267 325.282 204.034 325.188 203.786 325.188H203.423ZM213.214 325.188C212.967 325.188 212.733 325.282 212.563 325.443C212.395 325.604 212.303 325.818 212.303 326.037V328.894C212.303 329.018 212.355 329.141 212.454 329.235C212.553 329.329 212.691 329.385 212.839 329.385C212.987 329.385 213.126 329.329 213.225 329.235C213.324 329.141 213.375 329.018 213.375 328.894V327.699C213.375 327.235 213.511 326.78 213.765 326.387L214.049 325.947C214.099 325.869 214.125 325.78 214.125 325.691C214.125 325.628 214.112 325.565 214.086 325.505C214.06 325.446 214.021 325.39 213.971 325.343C213.921 325.295 213.861 325.256 213.793 325.229C213.725 325.202 213.651 325.188 213.577 325.188H213.214ZM205.5 328.671H211.5V326.617H205.5V328.671ZM207.08 321.616C205.627 321.616 204.482 322.734 204.482 324.072V324.529C204.669 324.609 204.842 324.72 204.991 324.862C205.26 325.118 205.433 325.452 205.484 325.813H211.516C211.567 325.452 211.741 325.118 212.009 324.862C212.173 324.706 212.364 324.586 212.571 324.505V324.072C212.571 322.734 211.427 321.616 209.973 321.616H207.08Z" fill="white"/>
</svg>
